<svg version="1.1" xmlns="http://www.w3.org/2000/svg" xmlns:xlink="http://www.w3.org/1999/xlink" width="125.18769" height="117.36346" viewBox="0,0,125.18769,117.36346"><g transform="translate(-177.08122,-119.86287)"><g data-paper-data="{&quot;isPaintingLayer&quot;:true}" fill-rule="nonzero" stroke-linecap="butt" stroke-linejoin="miter" stroke-miterlimit="10" stroke-dasharray="" stroke-dashoffset="0" style="mix-blend-mode: normal"><path d="M187.75488,207.68487c0,-19.16439 0,-46.42639 0,-56.99472c0,-8.38793 4.74955,-12.84249 4.74955,-12.84249c0,0 5.50441,-5.93695 14.03366,-5.93695c12.4024,0 44.07289,0 65.30644,0c9.959,0 15.65107,7.12435 15.65107,7.12435c0,0 4.74955,6.82933 4.74955,15.21728c0,9.68176 0,32.22244 0,49.87037c0,13.39201 -3.56216,18.02963 -3.56216,18.02963c0,0 -5.03703,5.93695 -16.83846,5.93695c-20.23605,0 -49.88736,0 -61.74428,0c-9.79057,0 -17.59584,-4.74955 -17.59584,-4.74955c0,0 -4.74953,-3.93968 -4.74953,-15.65487z" fill="#66e5ff" stroke="#000000" stroke-width="12"/><path d="M214.18094,207.77374v-9.61045h52.0566v9.61045z" fill="#000000" stroke="none" stroke-width="0"/><path d="M224.59226,177.34065v-24.82698h7.20784v24.82698z" fill="#000000" stroke="none" stroke-width="0"/><path d="M244.61404,177.34065v-24.82701h7.20784v24.82701z" fill="#000000" stroke="none" stroke-width="0"/><path d="M177.08122,237.22633v-117.36346h125.18769v117.36346z" fill="none" stroke="none" stroke-width="0"/></g></g></svg>