<svg version="1.1" xmlns="http://www.w3.org/2000/svg" xmlns:xlink="http://www.w3.org/1999/xlink" width="62.0109" height="91.85364" viewBox="0,0,62.0109,91.85364"><g transform="translate(-207.34739,-150.54483)"><g data-paper-data="{&quot;isPaintingLayer&quot;:true}" fill-rule="nonzero" stroke-linejoin="miter" stroke-miterlimit="10" stroke-dasharray="" stroke-dashoffset="0" style="mix-blend-mode: normal"><path d="M230.61535,222.21168l0.0081,-33.03302l19.51952,0.00479l-0.0081,33.03303z" data-paper-data="{&quot;index&quot;:null}" fill="#ffffff" stroke="#000c0c" stroke-width="0" stroke-linecap="butt"/><path d="M218.60154,235.59739l0.00337,-13.76377l42.79354,0.01049l-0.00337,13.76376z" data-paper-data="{&quot;index&quot;:null}" fill="#ffffff" stroke="#000c0c" stroke-width="5" stroke-linecap="butt"/><path d="M232.75719,199.42519c0,0 7.42964,-0.06856 14.75,0.00362" data-paper-data="{&quot;index&quot;:null}" fill="none" stroke="#0021ff" stroke-width="5" stroke-linecap="round"/><path d="M232.75542,206.67518c0,0 7.42963,-0.06856 14.74999,0.00362" data-paper-data="{&quot;index&quot;:null}" fill="none" stroke="#0021ff" stroke-width="5" stroke-linecap="round"/><path d="M232.50358,214.17512c0,0 7.42963,-0.06856 14.74999,0.00362" data-paper-data="{&quot;index&quot;:null}" fill="none" stroke="#0021ff" stroke-width="5" stroke-linecap="round"/><path d="M229.25174,221.67432l0.00729,-29.75l21.75,0.00533l-0.00729,29.75z" data-paper-data="{&quot;index&quot;:null}" fill="none" stroke="#000000" stroke-width="5" stroke-linecap="butt"/><path d="M232.75903,191.92517l0.00846,-34.5l14.99999,0.00369l-0.00846,34.5z" data-paper-data="{&quot;index&quot;:null}" fill="#ffffff" stroke="#000000" stroke-width="5" stroke-linecap="butt"/><path d="M257.25003,228.68118c-0.00033,1.38071 -1.1199,2.49972 -2.50061,2.49938c-1.38072,-0.00033 -2.49973,-1.1199 -2.49939,-2.50061c0.00033,-1.38071 1.1199,-2.49972 2.50061,-2.49938c1.38071,0.00033 2.49972,1.1199 2.49938,2.50061z" data-paper-data="{&quot;index&quot;:null}" fill="#000000" stroke="none" stroke-width="0.5" stroke-linecap="butt"/><path d="M225.4994,231.1734c-1.38071,-0.00033 -2.49972,-1.1199 -2.49938,-2.50061c0.00033,-1.38071 1.1199,-2.49972 2.50061,-2.49938c1.38071,0.00033 2.49972,1.1199 2.49938,2.50061c-0.00033,1.38071 -1.1199,2.49972 -2.50061,2.49938z" data-paper-data="{&quot;index&quot;:null}" fill="#000000" stroke="none" stroke-width="0.5" stroke-linecap="butt"/><path d="M207.34739,242.39847v-91.85364h62.0109v91.85364z" fill="none" stroke="none" stroke-width="0" stroke-linecap="butt"/></g></g></svg>