<svg version="1.1" xmlns="http://www.w3.org/2000/svg" xmlns:xlink="http://www.w3.org/1999/xlink" width="50.45434" height="47.30094" viewBox="0,0,50.45434,47.30094"><g transform="translate(-214.77283,-156.34953)"><g data-paper-data="{&quot;isPaintingLayer&quot;:true}" fill-rule="nonzero" stroke-linecap="butt" stroke-linejoin="miter" stroke-miterlimit="10" stroke-dasharray="" stroke-dashoffset="0" style="mix-blend-mode: normal"><path d="M218.25486,191.52282c0,-7.97648 0,-19.3233 0,-23.72198c0,-3.49117 1.97683,-5.34522 1.97683,-5.34522c0,0 2.29101,-2.47104 5.841,-2.47104c5.16205,0 18.34374,0 27.18143,0c4.14507,0 6.51419,2.96525 6.51419,2.96525c0,0 1.97683,2.84246 1.97683,6.33364c0,4.02968 0,13.41142 0,20.75673c0,5.57394 -1.48262,7.50418 -1.48262,7.50418c0,0 -2.09648,2.47104 -7.0084,2.47104c-8.42252,0 -20.7638,0 -25.69881,0c-4.07497,0 -7.32363,-1.97683 -7.32363,-1.97683c0,0 -1.97682,-1.63975 -1.97682,-6.51577z" fill="#66e5ff" stroke="#000000" stroke-width="4"/><path d="M229.25375,191.55981v-4h21.66667v4z" fill="#000000" stroke="none" stroke-width="0"/><path d="M233.58708,178.89314v-10.33333h3v10.33333z" fill="#000000" stroke="none" stroke-width="0"/><path d="M241.92042,178.89314v-10.33334h3v10.33334z" fill="#000000" stroke="none" stroke-width="0"/><path d="M214.77283,203.65047v-47.30094h50.45434v47.30094z" fill="none" stroke="none" stroke-width="0"/><path d="M214.77283,203.65047v-47.30094h50.45434v47.30094z" fill="none" stroke="none" stroke-width="0"/></g></g></svg>