<svg version="1.1" xmlns="http://www.w3.org/2000/svg" xmlns:xlink="http://www.w3.org/1999/xlink" width="90.05788" height="51.87544" viewBox="0,0,90.05788,51.87544"><g transform="translate(-194.97106,-153.79895)"><g data-paper-data="{&quot;isPaintingLayer&quot;:true}" fill-rule="nonzero" stroke-linecap="butt" stroke-linejoin="miter" stroke-miterlimit="10" stroke-dasharray="" stroke-dashoffset="0" style="mix-blend-mode: normal"><path d="M200.02572,188.11656c0,-4.1685 0,-12.12963 0,-18.75c0,-7.17456 5.20044,-10.875 12.375,-10.875c16.65743,0 45.29546,0 54.75,0c6.95045,0 12.875,3.42455 12.875,10.375c0,4.19689 0,13.24483 0,20.75c0,7.57432 -5.55068,11.875 -13.125,11.875c-9.29386,0 -53.5,0 -53.5,0c0,0 -7.37405,0.41127 -11.04211,-2.82731c-2.93768,-2.59371 -2.33289,-8.69389 -2.33289,-10.54769z" fill="#ffffff" stroke="#000000" stroke-width="6"/><path d="M218.25,186.25v-12.5h43.5v12.5z" fill="#ff0000" stroke="#000000" stroke-width="5"/><path d="M233.75,158.25h12.5v43.5h-12.5z" fill="#ff0000" stroke="#000000" stroke-width="5"/><path d="M194.97106,205.67439v-51.87544h90.05788v51.87544z" fill="none" stroke="none" stroke-width="0"/></g></g></svg>