<svg version="1.1" xmlns="http://www.w3.org/2000/svg" xmlns:xlink="http://www.w3.org/1999/xlink" width="380.49028" height="351.17867" viewBox="0,0,380.49028,351.17867"><g transform="translate(-49.75486,-4.41066)"><g data-paper-data="{&quot;isPaintingLayer&quot;:true}" fill-rule="nonzero" stroke-linecap="butt" stroke-linejoin="miter" stroke-miterlimit="10" stroke-dasharray="" stroke-dashoffset="0" style="mix-blend-mode: normal"><path d="M72.50441,332.8397c0,0 -16.74955,-13.89341 -16.74955,-55.20761c0,-67.58419 0,-163.72505 0,-200.99478c0,-29.58045 16.74955,-45.2897 16.74955,-45.2897c0,0 19.41158,-20.93696 49.49041,-20.93696c43.73771,0 155.4253,0 230.30647,0c35.12091,0 55.1943,25.12437 55.1943,25.12437c0,0 16.74955,24.08398 16.74955,53.66451c0,34.14321 0,113.63408 0,175.87041c0,47.22763 -12.56214,63.58242 -12.56214,63.58242c0,0 -17.76334,20.93696 -59.38171,20.93696c-71.36346,0 -175.93031,0 -217.74433,0c-34.52695,0 -62.05263,-16.74955 -62.05263,-16.74955z" fill="#66e5ff" stroke="#000000" stroke-width="12"/><path d="M148.94773,277.94551v-33.89174h183.58027v33.89174z" fill="#000000" stroke="none" stroke-width="0"/><path d="M185.66375,170.62165v-87.55362h25.4188v87.55362z" fill="#000000" stroke="none" stroke-width="0"/><path d="M256.27159,170.62165v-87.55371h25.4188v87.55371z" fill="#000000" stroke="none" stroke-width="0"/></g></g></svg>