<svg version="1.1" xmlns="http://www.w3.org/2000/svg" xmlns:xlink="http://www.w3.org/1999/xlink" width="173.49029" height="160.64453" viewBox="0,0,173.49029,160.64453"><g transform="translate(-153.25486,-99.67774)"><g data-paper-data="{&quot;isPaintingLayer&quot;:true}" fill-rule="nonzero" stroke-linecap="butt" stroke-linejoin="miter" stroke-miterlimit="10" stroke-dasharray="" stroke-dashoffset="0" style="mix-blend-mode: normal"><path d="M166.59532,246.98178c0,0 -7.34046,-6.08876 -7.34046,-24.19465c0,-29.61866 0,-71.75224 0,-88.08565c0,-12.96359 7.34046,-19.84814 7.34046,-19.84814c0,0 8.50709,-9.17559 21.68909,-9.17559c19.16798,0 68.11489,0 100.93145,0c15.39169,0 24.18881,11.01072 24.18881,11.01072c0,0 7.34046,10.55477 7.34046,23.51839c0,14.96321 0,49.79996 0,77.07493c0,20.69743 -5.50534,27.86489 -5.50534,27.86489c0,0 -7.78476,9.17559 -26.02393,9.17559c-31.27493,0 -77.10118,0 -95.42611,0c-15.13138,0 -27.19447,-7.34046 -27.19447,-7.34046z" fill="#66e5ff" stroke="#000000" stroke-width="12"/><path d="M200.09648,222.92448v-14.853h80.45376v14.853z" fill="#000000" stroke="none" stroke-width="0"/><path d="M216.18723,175.88997v-38.37023h11.13975v38.37023z" fill="#000000" stroke="none" stroke-width="0"/><path d="M247.131,175.88997v-38.37027h11.13975v38.37027z" fill="#000000" stroke="none" stroke-width="0"/></g></g></svg>