<svg version="1.1" xmlns="http://www.w3.org/2000/svg" xmlns:xlink="http://www.w3.org/1999/xlink" width="225.4903" height="208.50818" viewBox="0,0,225.4903,208.50818"><g transform="translate(-127.25485,-75.74591)"><g data-paper-data="{&quot;isPaintingLayer&quot;:true}" fill-rule="nonzero" stroke-linecap="butt" stroke-linejoin="miter" stroke-miterlimit="10" stroke-dasharray="" stroke-dashoffset="0" style="mix-blend-mode: normal"><path d="M142.95895,268.54996c0,0 -9.7041,-8.04935 -9.7041,-31.98535c0,-39.15589 0,-94.85652 0,-116.4493c0,-17.13787 9.7041,-26.23926 9.7041,-26.23926c0,0 11.24638,-12.13014 28.673,-12.13014c25.34009,0 90.04794,0 133.43146,0c20.34782,0 31.97763,14.55618 31.97763,14.55618c0,0 9.7041,13.95342 9.7041,31.09133c0,19.78138 0,65.83558 0,101.89312c0,27.36202 -7.27806,36.83741 -7.27806,36.83741c0,0 -10.29146,12.13014 -34.40366,12.13014c-41.34548,0 -101.92782,0 -126.15339,0c-20.0037,0 -35.95111,-9.7041 -35.95111,-9.7041z" fill="#66e5ff" stroke="#000000" stroke-width="12"/><path d="M187.24751,236.74619v-19.63568h106.35994v19.63568z" fill="#000000" stroke="none" stroke-width="0"/><path d="M208.51949,174.56654v-50.72548h14.72676v50.72548z" fill="#000000" stroke="none" stroke-width="0"/><path d="M249.42718,174.56654v-50.72553h14.72676v50.72553z" fill="#000000" stroke="none" stroke-width="0"/></g></g></svg>