<svg version="1.1" xmlns="http://www.w3.org/2000/svg" xmlns:xlink="http://www.w3.org/1999/xlink" width="298.92052" height="138.81664" viewBox="0,0,298.92052,138.81664"><g transform="translate(-84.30526,-76.13729)"><g data-paper-data="{&quot;isPaintingLayer&quot;:true}" fill-rule="nonzero" stroke-linecap="butt" stroke-linejoin="miter" stroke-miterlimit="10" stroke-dasharray="" stroke-dashoffset="0" style="mix-blend-mode: normal"><path d="M108.53435,189.76748c0,0 -2.95656,-2.69669 -2.95656,-13.60018c0,-21.1653 0,-54.31544 0,-66.227c0,-8.45583 4.13919,-13.30454 4.13919,-13.30454c0,0 3.13768,-5.32181 15.07847,-5.32181c47.57277,0 169.17453,0 199.56797,0c13.4065,0 19.21766,4.43484 19.21766,4.43484c0,0 7.98271,6.11196 7.98271,14.78282c0,12.29072 0,46.55408 0,67.40963c0,6.95409 -4.13918,11.23494 -4.13918,11.23494c0,0 -4.51198,5.61747 -13.89585,5.61747c-26.97039,0 -159.31322,0 -209.02897,0c-11.78083,0 -15.96543,-5.02616 -15.96543,-5.02616z" fill="#ff0000" stroke="#000000" stroke-width="15"/><text transform="translate(129.5556,152.88805) scale(0.78397,0.84416)" font-size="40" xml:space="preserve" fill="#000000" fill-rule="nonzero" stroke="none" stroke-width="1" stroke-linecap="butt" stroke-linejoin="miter" stroke-miterlimit="10" stroke-dasharray="" stroke-dashoffset="0" font-family="Sans Serif" font-weight="normal" text-anchor="start" style="mix-blend-mode: normal"><tspan x="0" dy="0">Click for Map</tspan></text><path d="M84.30526,214.95392v-138.81664h298.92052v138.81664z" fill="none" stroke="none" stroke-width="NaN"/></g></g></svg>