<svg version="1.1" xmlns="http://www.w3.org/2000/svg" xmlns:xlink="http://www.w3.org/1999/xlink" width="438.52988" height="247.07634" viewBox="0,0,438.52988,247.07634"><g transform="translate(-27.86944,-17.57416)"><g data-paper-data="{&quot;isPaintingLayer&quot;:true}" fill-rule="nonzero" stroke-linejoin="miter" stroke-miterlimit="10" stroke-dasharray="" stroke-dashoffset="0" style="mix-blend-mode: normal"><path d="M292.5551,234.06252c0,-20.11802 0,-48.73662 0,-59.83083c0,-8.80532 4.9859,-13.48154 4.9859,-13.48154c0,0 5.77831,-6.23238 14.73198,-6.23238c13.01956,0 46.266,0 68.55614,0c10.45457,0 16.42989,7.47886 16.42989,7.47886c0,0 4.9859,7.16916 4.9859,15.9745c0,10.16353 0,33.82586 0,52.35197c0,14.05841 -3.73942,18.92681 -3.73942,18.92681c0,0 -5.28768,6.23238 -17.67637,6.23238c-21.24302,0 -52.3698,0 -64.81672,0c-10.27776,0 -18.47143,-4.98589 -18.47143,-4.98589c0,0 -4.98587,-4.13573 -4.98587,-16.43387z" fill="#66e5ff" stroke="#000000" stroke-width="11" stroke-linecap="butt"/><path d="M320.29616,234.15581v-10.08867h54.64699v10.08867z" fill="#000000" stroke="none" stroke-width="0" stroke-linecap="butt"/><path d="M316.22553,191.20834v-26.0624h7.56651v26.0624z" fill="#000000" stroke="none" stroke-width="0" stroke-linecap="butt"/><path d="M336.24364,203.20834v-26.06242h7.56651v26.06242z" fill="#000000" stroke="none" stroke-width="0" stroke-linecap="butt"/><path d="M283.77284,264.65049v-119.30094h127.25435v119.30094z" fill="none" stroke="none" stroke-width="0" stroke-linecap="butt"/><path d="M283.69225,212.07492l-26.21927,-20.09305l11.87317,-15.49321l26.21928,20.09305z" data-paper-data="{&quot;index&quot;:null}" fill="#ffffff" stroke="#000c0c" stroke-width="0" stroke-linecap="butt"/><path d="M287.01354,229.75196l-10.92471,-8.37211l26.03009,-33.96648l10.9247,8.3721z" data-paper-data="{&quot;index&quot;:null}" fill="#ffffff" stroke="#000c0c" stroke-width="5" stroke-linecap="butt"/><path d="M266.90495,196.51862c0,0 4.46336,-5.93992 8.97201,-11.7075" data-paper-data="{&quot;index&quot;:null}" fill="none" stroke="#0021ff" stroke-width="5" stroke-linecap="round"/><path d="M272.65948,200.92858c0,0 4.46336,-5.93991 8.972,-11.70749" data-paper-data="{&quot;index&quot;:null}" fill="none" stroke="#0021ff" stroke-width="5" stroke-linecap="round"/><path d="M278.46038,205.68905c0,0 4.46336,-5.93991 8.972,-11.70749" data-paper-data="{&quot;index&quot;:null}" fill="none" stroke="#0021ff" stroke-width="5" stroke-linecap="round"/><path d="M282.43647,212.83071l-23.61344,-18.09607l13.2299,-17.26361l23.61344,18.09607z" data-paper-data="{&quot;index&quot;:null}" fill="none" stroke="#000000" stroke-width="5" stroke-linecap="butt"/><path d="M260.95196,191.95657l-27.38365,-20.98537l9.12408,-11.90592l27.38365,20.98537z" data-paper-data="{&quot;index&quot;:null}" fill="#ffffff" stroke="#000000" stroke-width="5" stroke-linecap="butt"/><path d="M305.02418,194.86418c1.09591,0.83984 1.30349,2.40909 0.46364,3.50499c-0.83985,1.09592 -2.40909,1.3035 -3.505,0.46365c-1.09591,-0.83984 -1.30349,-2.40909 -0.46364,-3.50499c0.83984,-1.09591 2.40909,-1.30349 3.50499,-0.46364z" data-paper-data="{&quot;index&quot;:null}" fill="#000000" stroke="none" stroke-width="0.5" stroke-linecap="butt"/><path d="M287.69586,221.58578c-0.83984,1.09591 -2.40909,1.30349 -3.50499,0.46364c-1.09591,-0.83984 -1.30349,-2.40909 -0.46364,-3.50499c0.83984,-1.09591 2.40909,-1.30349 3.50499,-0.46364c1.09591,0.83984 1.30349,2.40909 0.46364,3.50499z" data-paper-data="{&quot;index&quot;:null}" fill="#000000" stroke="none" stroke-width="0.5" stroke-linecap="butt"/><path d="M287.81264,235.18682l-68.30537,-52.31901l30.68012,-40.0546l68.30537,52.31901z" fill="none" stroke="none" stroke-width="0" stroke-linecap="butt"/><g><path d="M159.61459,108.27248l-8.91666,-7.15149l3.10934,-3.8768l8.91666,7.15149z" fill="#ffffff" stroke="#000000" stroke-width="3.5" stroke-linecap="butt"/><path d="M167.99755,118.35145l-13.50109,-10.82838l6.39859,-7.97792l13.50109,10.82838z" fill="#ffffff" stroke="#000c0c" stroke-width="0" stroke-linecap="butt"/><path d="M159.54735,109.8055c2.37089,-3.01502 4.83512,-6.02854 4.83512,-6.02854" fill="none" stroke="#0021ff" stroke-width="3" stroke-linecap="round"/><path d="M162.51053,112.18209c2.37089,-3.01502 4.83512,-6.02854 4.83512,-6.02854" fill="none" stroke="#0021ff" stroke-width="3" stroke-linecap="round"/><path d="M165.65785,114.53843c2.37089,-3.01502 4.83512,-6.02854 4.83512,-6.02854" fill="none" stroke="#0021ff" stroke-width="3" stroke-linecap="round"/><path d="M167.49395,118.52965l-12.15927,-9.75219l7.12975,-8.88955l12.15927,9.75219z" fill="none" stroke="#000000" stroke-width="3.5" stroke-linecap="butt"/></g><g><path d="M201.94793,140.93915l-8.91666,-7.15149l3.10934,-3.87681l8.91666,7.1515z" fill="#ffffff" stroke="#000000" stroke-width="3.5" stroke-linecap="butt"/><path d="M210.33088,151.01811l-13.50108,-10.82838l6.39859,-7.97792l13.50109,10.82838z" fill="#ffffff" stroke="#000c0c" stroke-width="0" stroke-linecap="butt"/><path d="M201.88068,142.47216c2.37089,-3.01502 4.83512,-6.02854 4.83512,-6.02854" fill="none" stroke="#0021ff" stroke-width="3" stroke-linecap="round"/><path d="M204.84386,144.84875c2.37089,-3.01502 4.83512,-6.02854 4.83512,-6.02854" fill="none" stroke="#0021ff" stroke-width="3" stroke-linecap="round"/><path d="M207.99118,147.2051c2.37089,-3.01502 4.83512,-6.02854 4.83512,-6.02854" fill="none" stroke="#0021ff" stroke-width="3" stroke-linecap="round"/><path d="M209.82728,151.19632l-12.15927,-9.75219l7.12975,-8.88955l12.15927,9.75219z" fill="none" stroke="#000000" stroke-width="3.5" stroke-linecap="butt"/></g><g stroke="#000000" stroke-linecap="butt"><path d="M79.58221,45.64628c0,10.519 -8.85531,19.04632 -19.77888,19.04632c-10.92357,0 -19.77888,-8.52733 -19.77888,-19.04632c0,-10.519 8.85531,-19.04633 19.77888,-19.04633c10.92358,0 19.77888,8.52733 19.77888,19.04633z" fill="#9a9a9a" stroke-width="6"/><path d="M50.65771,40.07637l-10.77856,-15.33872l16.99696,9.94944z" fill="#ff0000" stroke-width="4.5"/><path d="M66.20269,34.0157l18.13722,-4.74289l-15.25904,12.4519z" fill="#ff0000" stroke-width="4.5"/><path d="M64.50229,57.92235l-7.59182,17.14112l-0.2311,-19.69351z" fill="#ff0000" stroke-width="4.5"/><path d="M49.99302,49.45211l-13.33291,13.17904l6.98467,-18.41474z" fill="#ff0000" stroke-width="4.5"/><path d="M62.40056,44.91387l20.883,3.0664l-19.93568,5.21017z" fill="#ff0000" stroke-width="4.5"/></g><g stroke="#000000" stroke-linecap="butt"><path d="M153.48243,53.0293c0,10.73961 -9.04103,19.44579 -20.1937,19.44579c-11.15267,0 -20.19371,-8.70618 -20.19371,-19.44579c0,-10.73961 9.04103,-19.44579 20.19371,-19.44579c11.15267,0 20.1937,8.70618 20.1937,19.44579z" fill="#9a9a9a" stroke-width="6"/><path d="M123.95129,47.34258l-11.00462,-15.66043l17.35344,10.15812z" fill="#ff0000" stroke-width="4.5"/><path d="M139.8223,41.15479l18.51762,-4.84236l-15.57907,12.71306z" fill="#ff0000" stroke-width="4.5"/><path d="M138.08623,65.56284l-7.75105,17.50063l-0.23595,-20.10655z" fill="#ff0000" stroke-width="4.5"/><path d="M123.27265,56.91495l-13.61255,13.45545l7.13116,-18.80096z" fill="#ff0000" stroke-width="4.5"/><path d="M135.94042,52.28154l21.32098,3.13072l-20.35379,5.31945z" fill="#ff0000" stroke-width="4.5"/></g><g fill="#5f92ff" stroke="#000000" stroke-linecap="butt"><path d="M44.18466,99.94878c0,-2.3686 2.60402,-4.48127 2.60402,-4.48127c0,0 2.6758,-0.96863 6.15278,-1.05207c6.09594,-0.1463 26.1383,-0.62732 38.1947,-0.91667c5.56873,-0.13365 6.14099,1.52971 6.14099,1.52971c0,0 3.29272,2.85794 3.29272,5.26836c0,2.55664 -1.31709,5.26836 -1.31709,5.26836c0,0 -1.35289,2.63418 -5.48788,2.63418c-12.19545,0 -37.13434,0 -43.90301,0c-3.32031,0 -5.26836,-3.29272 -5.26836,-3.29272c0,0 -0.40887,-2.3702 -0.40887,-4.95787z" stroke-width="3.5"/><path d="M59.93975,86.58014c4.01762,6.16992 6.86851,11.43603 6.36763,11.76219c-0.50088,0.32615 -4.16385,-4.41116 -8.18148,-10.58108c-4.01762,-6.16992 -6.86851,-11.43603 -6.36763,-11.76219c0.50088,-0.32615 4.16385,4.41116 8.18148,10.58108z" stroke-width="1.5"/><path d="M95.47606,106.2995c5.48777,4.90853 9.61345,9.24883 9.21497,9.69434c-0.39848,0.4455 -5.17022,-3.1725 -10.65799,-8.08104c-5.48777,-4.90853 -9.61345,-9.24883 -9.21497,-9.69433c0.39848,-0.4455 5.17022,3.1725 10.65799,8.08103z" stroke-width="1.5"/><path d="M75.30248,110.97319c2.89127,6.77125 4.78949,12.45071 4.23979,12.68543c-0.5497,0.23472 -3.33915,-5.06419 -6.23042,-11.83544c-2.89127,-6.77125 -4.7895,-12.4507 -4.2398,-12.68542c0.5497,-0.23472 3.33915,5.06419 6.23042,11.83544z" stroke-width="1.5"/><path d="M52.08273,108.71069c-5.39477,5.01056 -10.09784,8.7174 -10.5046,8.27944c-0.40676,-0.43795 3.63682,-4.85485 9.03159,-9.86541c5.39477,-5.01056 10.09784,-8.7174 10.5046,-8.27945c0.40676,0.43795 -3.63682,4.85485 -9.03159,9.86541z" stroke-width="1.5"/><path d="M102.64607,90.00525c6.48388,-3.48835 11.96967,-5.88951 12.25285,-5.36315c0.28319,0.52637 -4.74347,3.78094 -11.22735,7.26929c-6.48388,3.48835 -11.96967,5.88951 -12.25285,5.36315c-0.28319,-0.52637 4.74347,-3.78094 11.22735,-7.26929z" stroke-width="1.5"/><path d="M80.30433,91.1013c-1.89343,7.11507 -3.8966,12.75836 -4.47421,12.60466c-0.57761,-0.15371 0.48908,-6.04622 2.38251,-13.16129c1.89343,-7.11507 3.8966,-12.75836 4.4742,-12.60466c0.57761,0.15371 -0.48908,6.04622 -2.38251,13.16129z" stroke-width="1.5"/><path d="M41.59321,94.28729c6.96987,2.37279 12.46392,4.755 12.27129,5.32082c-0.19263,0.56582 -5.99898,-0.89902 -12.96885,-3.27181c-6.96987,-2.37279 -12.46392,-4.755 -12.2713,-5.32082c0.19263,-0.56582 5.99898,0.89902 12.96885,3.27181z" stroke-width="1.5"/></g><path d="M206.50861,48.1058v42.809h-12.32997v-42.809zM236.34672,48.1058v42.809h-10.80398l-4.96454,-19.53262l0.81386,19.53262h-10.58017v-42.809h10.35637l5.41216,19.34951l-0.81386,-19.34951zM266.17977,48.1058v42.809h-10.80398l-4.96455,-19.53262l0.81386,19.53262h-10.58017v-42.809h10.35637l5.41218,19.34951l-0.81386,-19.34951zM270.47796,48.1058h19.49193v9.86805h-7.16196v6.18533h6.694v9.46112h-6.69399v7.42647h7.87409v9.86805h-20.20405v-42.809zM293.74925,48.1058h8.4031c5.10019,0 8.61334,0.21025 10.53948,0.63075c1.92614,0.4205 3.50638,1.51242 4.74074,3.27579c1.23436,1.7498 1.85154,4.46944 1.85154,8.15895c0,3.37752 -0.46119,5.7038 -1.38356,6.97885c-0.90881,1.26148 -2.68574,1.7498 -5.33078,1.46495c2.41445,0.02712 4.03539,0.54258 4.86282,1.54633c0.84098,1.00376 1.35644,1.91935 1.54633,2.74678c0.20346,0.82743 0.3052,2.93668 0.3052,6.32776v11.67888h-11.57714v-14.50704c0,-2.03465 -0.11529,-3.22153 -0.34588,-3.56063c-0.21703,-0.33911 -0.6443,-0.50866 -1.28182,-0.50866v18.57634h-12.32997v-42.809zM306.07922,56.77342v7.5282c0.50188,0 0.89525,-0.09495 1.1801,-0.28485c0.29842,-0.20346 0.44762,-1.07159 0.44762,-2.60435v-2.25845c0,-1.07159 -0.1492,-1.73623 -0.44762,-1.99396c-0.28485,-0.25773 -0.67821,-0.38658 -1.1801,-0.38658zM356.92508,62.20592h-11.57714v-3.86583c0,-1.26148 -0.06782,-1.99396 -0.20346,-2.19742c-0.12208,-0.20346 -0.33233,-0.30519 -0.63073,-0.30519c-0.33911,0 -0.61718,0.16956 -0.8342,0.50867c-0.20346,0.33911 -0.30519,0.95629 -0.30519,1.85154c0,1.24791 0.1492,2.15673 0.44762,2.72643c0.29842,0.55613 1.20722,1.29539 2.72643,2.21777c4.86959,2.87563 7.96225,5.26975 9.278,7.18231c1.3293,1.96683 1.99396,5.04593 1.99396,9.2373c0,3.06554 -0.37981,5.36469 -1.1394,6.89746c-0.74604,1.53276 -2.17707,2.80781 -4.2931,3.82514c-2.10247,1.00376 -4.5237,1.50564 -7.26369,1.50564c-2.99771,0 -5.5885,-0.58327 -7.77236,-1.7498c-2.1703,-1.1801 -3.59455,-2.67895 -4.27276,-4.49657c-0.67821,-1.81761 -1.01732,-4.32024 -1.01732,-7.50785v-3.49959h11.5568v5.81909c0,1.38356 0.08139,2.2042 0.24416,2.46193c0.16277,0.24416 0.44762,0.36624 0.85455,0.36624c0.4205,0 0.73926,-0.18311 0.95629,-0.54935c0.23059,-0.36624 0.3459,-1.02411 0.3459,-1.9736c0,-2.22454 -0.2645,-3.62846 -0.79351,-4.21172c-0.62396,-0.69178 -2.23811,-1.89222 -4.84246,-3.60132c-2.6993,-1.77692 -4.51692,-3.09267 -5.45286,-3.94722c-0.92237,-0.86812 -1.68875,-2.05499 -2.29915,-3.56063c-0.61039,-1.50564 -0.91559,-3.41142 -0.91559,-5.71735c0,-3.28256 0.44084,-5.72414 1.32253,-7.32473c0.88168,-1.60059 2.28559,-2.84172 4.21173,-3.7234c1.93969,-0.88168 4.24564,-1.32251 6.9178,-1.32251c2.90277,0 5.3986,0.48153 7.48751,1.44461c2.10247,0.96306 3.50638,2.19742 4.21173,3.70306c0.70535,1.50564 1.05802,3.96079 1.05802,7.36543zM361.17241,48.1058h11.59749c2.99771,0 5.33078,0.25094 6.99919,0.75283c1.68198,0.48832 2.97059,1.22079 3.86583,2.19742c0.89525,0.96306 1.49207,2.10925 1.79049,3.43856c0.29842,1.3293 0.44762,3.3097 0.44762,5.94117v3.60133c0,2.74 -0.30519,4.7882 -0.91559,6.14464c-0.61039,1.34287 -1.71589,2.37376 -3.31647,3.09267c-1.60059,0.70535 -3.62167,1.05802 -6.06325,1.05802h-2.07534v16.58239h-12.32997v-42.809zM373.50238,56.77342l-0.30519,9.19661c0,-0.20346 0.09495,-0.30519 0.28485,-0.30519c0.7189,0 1.20045,-0.15599 1.44461,-0.46796c0.24416,-0.31198 0.36624,-1.13262 0.36624,-2.46192v-3.37752c0,-1.1801 -0.14242,-1.90578 -0.42727,-2.17707c-0.27128,-0.27128 -0.72569,-0.40693 -1.36321,-0.40693zM407.64885,48.1058l6.36846,42.809h-12.65551l-0.52901,-7.40612h-2.33984l-0.63073,7.40612h-12.77759l5.67667,-42.809zM400.36481,74.57658c-0.47475,-4.05573 -0.71212,-9.53572 -0.71212,-16.43996c-0.54258,7.92156 -0.92915,13.40155 -1.15974,16.43996zM442.35994,67.69947h-12.32997v-7.99616c0,-1.96683 -0.06782,-3.09945 -0.20346,-3.39786c-0.13565,-0.31198 -0.4205,-0.46796 -0.85455,-0.46796c-0.50188,0 -0.8342,0.20346 -0.99697,0.61039c-0.1492,0.40693 -0.2238,1.60059 -0.2238,3.58098v19.12569c0,1.899 0.0746,3.04519 0.22382,3.43856c0.1492,0.39336 0.46119,0.59005 0.93594,0.59005c0.4205,0 0.71213,-0.19668 0.87491,-0.59004c0.16277,-0.39336 0.24416,-1.66163 0.24416,-3.80479v-5.98187h12.32997v2.42124c0,4.34058 -0.32554,7.46717 -0.97663,9.37973c-0.65109,1.91257 -2.08213,3.58777 -4.2931,5.02559c-2.19742,1.43782 -4.88316,2.15673 -8.05721,2.15673c-3.26901,0 -6.00221,-0.61039 -8.19963,-1.83118c-2.18384,-1.23436 -3.63522,-2.92311 -4.35412,-5.06627c-0.70535,-2.15673 -1.05802,-5.29687 -1.05802,-9.42041v-12.02476c0,-3.01128 0.10851,-5.30365 0.32554,-6.87711c0.21703,-1.57346 0.86812,-3.09945 1.95326,-4.57796c1.09871,-1.47852 2.60434,-2.63826 4.51689,-3.47924c1.91257,-0.84098 4.08287,-1.26148 6.51087,-1.26148c3.29613,0 6.04291,0.65787 8.24033,1.97362c2.21099,1.30217 3.66237,2.92989 4.35415,4.88316c0.69178,1.95326 1.03768,4.90351 1.03768,8.85073zM446.19525,48.1058h19.49193v9.86805h-7.16196v6.18533h6.694v9.46112h-6.69399v7.42647h7.87409v9.86805h-20.20405v-42.809z" fill="#000000" stroke="none" stroke-width="1" stroke-linecap="square"/><path d="M67.54249,181.3035c0,4.29878 -0.10501,7.38633 -0.31505,9.26268c-0.21004,1.86234 -0.88916,3.59165 -2.03736,5.18794c-1.14821,1.58228 -2.68848,2.8005 -4.62083,3.65466c-1.93235,0.84015 -4.15175,1.26023 -6.65819,1.26023c-2.39443,0 -4.55781,-0.39907 -6.49016,-1.19721c-1.91834,-0.79814 -3.47962,-2.00236 -4.68384,-3.61265c-1.19022,-1.61029 -1.89734,-3.33261 -2.12138,-5.16693c-0.22404,-1.84833 -0.33606,-4.97789 -0.33606,-9.38869v-7.26731c0,-4.29878 0.10503,-7.37933 0.31506,-9.24167c0.21004,-1.87633 0.88916,-3.60565 2.03737,-5.18793c1.14821,-1.59629 2.68848,-2.81451 4.62083,-3.65466c1.93235,-0.84015 4.15175,-1.26023 6.65821,-1.26023c2.38042,0 4.53682,0.39908 6.46917,1.19722c1.93235,0.78414 3.49363,1.98136 4.68385,3.59165c1.20421,1.61029 1.91834,3.33961 2.14239,5.18794c0.22404,1.83433 0.33606,4.95689 0.33606,9.36769zM54.79319,167.33599c0,-1.86234 -0.063,-2.95454 -0.18903,-3.27659c-0.12602,-0.33606 -0.34306,-0.50409 -0.65111,-0.50409c-0.28005,0 -0.51109,0.12602 -0.69312,0.37807c-0.16803,0.25205 -0.25205,1.38625 -0.25205,3.40261v19.84858c0,2.36643 0.05601,3.72467 0.16803,4.07473c0.12602,0.35007 0.36406,0.5251 0.71413,0.5251c0.33606,0 0.56711,-0.21004 0.69313,-0.63011c0.14003,-0.43408 0.21004,-1.86234 0.21004,-4.28477zM71.65397,155.57387h11.97216c3.09455,0 5.50299,0.25905 7.2253,0.77715c1.73632,0.50409 3.06655,1.26023 3.99072,2.26841c0.92417,0.99417 1.54027,2.17739 1.84833,3.54965c0.30806,1.37224 0.46208,3.41662 0.46208,6.13311v3.71768c0,2.82851 -0.31505,4.94289 -0.94516,6.34314c-0.63011,1.38625 -1.77132,2.45045 -3.42361,3.19258c-1.6523,0.72814 -3.73867,1.0922 -6.25913,1.0922h-2.14239v17.11809h-12.72829zM84.38226,164.52149l-0.31505,9.49371c0,-0.21004 0.09802,-0.31505 0.29405,-0.31505c0.74213,0 1.23923,-0.16103 1.49128,-0.48308c0.25205,-0.32205 0.37807,-1.16921 0.37807,-2.54145v-3.48663c0,-1.21822 -0.14702,-1.96735 -0.44107,-2.2474c-0.28005,-0.28005 -0.74913,-0.42008 -1.40725,-0.42008zM125.42367,170.12949h-11.95115v-3.99072c0,-1.30223 -0.07001,-2.05837 -0.21004,-2.26841c-0.12602,-0.21004 -0.34306,-0.31505 -0.65111,-0.31505c-0.35007,0 -0.63712,0.17503 -0.86115,0.5251c-0.21004,0.35007 -0.31506,0.98718 -0.31506,1.91135c0,1.28823 0.15402,2.2264 0.46208,2.81451c0.30806,0.5741 1.24622,1.33724 2.81451,2.28942c5.0269,2.96853 8.21948,5.43999 9.57773,7.41434c1.37224,2.03037 2.05837,5.20894 2.05837,9.53572c0,3.16457 -0.39208,5.538 -1.17621,7.12029c-0.77014,1.58228 -2.2474,2.89852 -4.43179,3.94871c-2.17039,1.03618 -4.66984,1.55428 -7.49834,1.55428c-3.09455,0 -5.76904,-0.60211 -8.02345,-1.80633c-2.24041,-1.21822 -3.71067,-2.7655 -4.41081,-4.64183c-0.70012,-1.87633 -1.05019,-4.45981 -1.05019,-7.75039v-3.61265h11.93016v6.00708c0,1.42826 0.08402,2.27541 0.25205,2.54146c0.16803,0.25205 0.46208,0.37807 0.88216,0.37807c0.43408,0 0.76314,-0.18903 0.98718,-0.5671c0.23804,-0.37807 0.35707,-1.05719 0.35707,-2.03736c0,-2.29641 -0.27304,-3.74568 -0.81914,-4.34778c-0.64412,-0.71413 -2.31042,-1.95335 -4.9989,-3.71766c-2.78651,-1.83433 -4.66284,-3.19258 -5.62901,-4.07473c-0.95218,-0.89617 -1.74332,-2.12138 -2.37343,-3.67566c-0.63011,-1.55428 -0.94516,-3.52163 -0.94516,-5.90206c0,-3.38861 0.45508,-5.90906 1.36525,-7.56136c0.91017,-1.6523 2.35944,-2.93353 4.34779,-3.84369c2.00236,-0.91016 4.38279,-1.36524 7.14129,-1.36524c2.99654,0 5.573,0.49709 7.72939,1.49128c2.17039,0.99417 3.61965,2.26841 4.34779,3.82269c0.72814,1.55428 1.0922,4.08874 1.0922,7.60337v2.52045z" fill="#000000" stroke="none" stroke-width="1" stroke-linecap="square"/></g></g></svg>