<svg version="1.1" xmlns="http://www.w3.org/2000/svg" xmlns:xlink="http://www.w3.org/1999/xlink" width="668.30116" height="465.12167" viewBox="0,0,668.30116,465.12167"><g transform="translate(97.90151,63.36199)"><g data-paper-data="{&quot;isPaintingLayer&quot;:true}" fill-rule="nonzero" stroke-linejoin="miter" stroke-miterlimit="10" stroke-dasharray="" stroke-dashoffset="0" style="mix-blend-mode: normal"><path d="M45.80118,305.88667c0,0 -2.49783,-2.63652 -2.49783,-8.00311c0,-7.58139 0,-27.43742 0,-27.43742c0,0 157.86285,0 186.92008,0c8.83588,0 12.2899,3.32948 12.2899,3.32948c0,0 4.99422,4.95386 4.99422,10.28415c0,7.58574 0,27.57192 0,27.57192c0,0 -168.43571,0 -193.22845,0c-5.90889,0 -8.47792,-5.74502 -8.47792,-5.74502z" fill="#ffffff" stroke="#000000" stroke-width="5" stroke-linecap="butt"/><path d="M309.5646,312.12719c0,0 0,-23.18361 0,-30.731c0,-4.40211 4.32833,-8.12391 4.32833,-8.12391c0,0 2.45054,-2.33063 10.22186,-2.33063c26.06065,0 172.36537,0 220.70057,0c9.73844,0 11.75,3.25 11.75,3.25c0,0 3.75,3.34575 3.75,7.99336c0,3.87656 0,11.61256 0,18.25c0,6.34862 -1.75,8.19219 -1.75,8.19219c0,0 -3.33595,3.5 -9.5,3.5c-28.44091,0 -239.50075,0 -239.50075,0z" fill="#ffffff" stroke="#000000" stroke-width="5" stroke-linecap="butt"/><path d="M46.63666,137.46325c0,0 -3,-2.86889 -3,-8.93789c0,-10.6912 0,-44.28733 0,-44.28733h39.03904c0,0 0,34.31822 0,44.954c0,5.85097 -3.33333,9.60455 -3.33333,9.60455c0,0 -2.96083,4 -10.00901,4c-5.36703,0 -11.31132,0 -14.42567,0c-4.58983,0 -8.27103,-5.33333 -8.27103,-5.33333z" fill="#ffffff" stroke="#000000" stroke-width="5" stroke-linecap="butt"/><path d="M154.92842,188.60221c0,0 -2.01548,-2.69877 -2.01548,-7.86698c0,-4.27065 0,-12.61474 0,-18.98352c0,-4.77823 3.5271,-6.44633 3.5271,-6.44633c0,0 1.38822,-1.99827 7.84078,-1.99827c36.97614,0 373.29922,0 373.29922,0c0,0 0,18.94125 0,26.37771c0,5.44907 -2.5,9.66282 -2.5,9.66282c0,0 -2.28065,4.5 -10.76468,4.5c-62.67613,0 -327.46685,0 -360.03453,0c-6.45257,0 -9.3524,-5.24545 -9.3524,-5.24545z" fill="#ffffff" stroke="#000000" stroke-width="5" stroke-linecap="butt"/><g stroke-linecap="butt"><path d="M154.66217,250.01833c0,-11.39155 0,-31.69792 0,-37.33333c0,-2.85851 1.33333,-3.82685 1.33333,-3.82685c0,0 1.29434,-2 4.72899,-2c4.89589,0 11.43144,0 14.33333,0c2.8155,0 4.63137,1.33334 4.63137,1.33334c0,0 2,2.02719 2,5.16018c0,6.01365 0,27.13846 0,38c0,3.96136 -1.16667,4.39086 -1.16667,4.39086c0,0 -1.49803,2.16667 -4.96471,2.16667c-4.85467,0 -11.28207,0 -14.16667,0c-2.84686,0 -5.06232,-2.16667 -5.06232,-2.16667c0,0 -1.66665,-1.01798 -1.66665,-5.7242z" fill="#a66f00" stroke="#a69066" stroke-width="5"/><path d="M171.68172,232.38369c0,-1.38071 1.11929,-2.5 2.5,-2.5c1.38071,0 2.5,1.11929 2.5,2.5c0,1.38071 -1.11929,2.5 -2.5,2.5c-1.38071,0 -2.5,-1.11929 -2.5,-2.5z" fill="#a69066" stroke="none" stroke-width="0.5"/></g><path d="M357.8604,251.85164c0,-10.51655 0,-30.61239 0,-36.83333c0,-3.59765 1.5,-5.33133 1.5,-5.33133c0,0 1.70258,-2.33334 5.53079,-2.33334c3.85322,0 10.00693,0 12.49999,0c3.55941,0 4.82957,1.5 4.82957,1.5c0,0 2.66666,1.74912 2.66666,5.66467c0,6.16251 0,26.0396 0,36.5c0,4.4123 -1,5.21972 -1,5.21972c0,0 -1.80072,2.16666 -5.32957,2.16666c-4.2684,0 -9.60211,0 -12.33333,0c-3.34006,0 -6.03079,-1.66666 -6.03079,-1.66666c0,0 -2.33332,-0.93301 -2.33332,-4.88639z" fill="#a66f00" stroke="#ac9469" stroke-width="5" stroke-linecap="butt"/><path d="M365.36791,235.37917c-1.38071,0 -2.5,-1.11929 -2.5,-2.5c0,-1.38071 1.11929,-2.5 2.5,-2.5c1.38071,0 2.5,1.11929 2.5,2.5c0,1.38071 -1.11929,2.5 -2.5,2.5z" fill="#ac9469" stroke="none" stroke-width="0.5" stroke-linecap="butt"/><path d="M288.54357,21.67048c0,0 0,-51.44342 0,-63.34257c0,-4.66842 3,-7 3,-7c0,0 3.19549,-2.75 7.13927,-2.75c5.52377,0 19.89076,0 19.89076,0v73.09257z" fill="#ffffff" stroke="#000000" stroke-width="5" stroke-linecap="butt"/><path d="M319.82734,-9.35809v-42.04204h156.15616v42.04204z" fill="#ffffff" stroke="#000000" stroke-width="5" stroke-linecap="butt"/><path d="M478.98653,152.80408v-204.2042c0,0 35.28403,0 45.82883,0c5.55749,0 8.22973,2.5 8.22973,2.5c0,0 4.5,2.69734 4.5,8.72801c0,25.00149 0,192.97619 0,192.97619z" fill="#ffffff" stroke="#000000" stroke-width="5" stroke-linecap="butt"/><path d="M43.30032,84.23805c0,0 0,-41.1124 0,-52.04586c0,-5.03037 3.75,-7.7672 3.75,-7.7672c0,0 2.54315,-3.25 10,-3.25c32.52085,0 261.52628,0 261.52628,0c0,0 0,37.62354 0,49.01719c0,6.09906 -3,9.79587 -3,9.79587c0,0 -3.82027,4.25 -11.77628,4.25c-33.40538,0 -260.5,0 -260.5,0z" fill="#ffffff" stroke="#000000" stroke-width="5" stroke-linecap="butt"/><path d="M477.41568,102.84039c0,-1.11693 0.66849,-2.02238 1.4931,-2.02238c0.82461,0 1.4931,0.90546 1.4931,2.02239c0,1.11693 -0.66849,2.02239 -1.4931,2.02239c-0.82461,0 -1.4931,-0.90546 -1.4931,-2.02238z" fill="#000000" stroke="none" stroke-width="0.5" stroke-linecap="butt"/><path d="M220.22677,363.76508v-51.05105h27.27696v51.05105z" fill="#ffffff" stroke="#000000" stroke-width="5" stroke-linecap="butt"/><path d="M309.56077,364.26057v-51.05105h26.77709v51.05105z" fill="#ffffff" stroke="#000000" stroke-width="5" stroke-linecap="butt"/><path d="M222.55737,386.79673c0,0 -2.33064,-3.45897 -2.33064,-7.47689c0,-4.44698 0,-14.05327 0,-14.05327h116.11712c0,0 0,11.4017 0,16.05096c0,3.57202 -1.99769,6.47804 -1.99769,6.47804c0,0 -2.18155,2.99653 -8.89961,2.99653c-24.28336,0 -81.73791,0 -94.89021,0c-5.24686,0 -7.99897,-3.99537 -7.99897,-3.99537z" fill="#ffffff" stroke="#000000" stroke-width="5" stroke-linecap="butt"/><path d="M43.29881,270.22299v-58.55856c0,0 19.1807,0 26.36787,0c5.07961,0 8.67117,2.66667 8.67117,2.66667c0,0 4,3.506 4,8.52758c0,10.32925 0,47.36431 0,47.36431z" fill="#ffffff" stroke="#000000" stroke-width="5" stroke-linecap="butt"/><path d="M-45.37309,102.69849v-30.03003h88.58859v30.03003z" fill="#ffffff" stroke="#000000" stroke-width="5" stroke-linecap="butt"/><path d="M-44.8836,241.98353v-30.25h88.26051v30.25z" fill="#ffffff" stroke="#000000" stroke-width="5" stroke-linecap="butt"/><path d="M-80.83332,238.93997c0,0 -3,-1.23582 -3,-8.70644c0,-33.38507 0,-126.62829 0,-145.26802c0,-6.35799 3.5,-9.19963 3.5,-9.19963c0,0 3.52025,-2.99558 8.25,-2.99558c7.20798,0 27.28904,0 27.28904,0v169.16967c0,0 -20.84002,0 -28.03904,0c-4.50908,0 -8,-3 -8,-3z" fill="#ffffff" stroke="#000000" stroke-width="5" stroke-linecap="butt"/><g stroke-linecap="butt"><path d="M48.55109,194.95825c0,-11.39155 0,-31.69792 0,-37.33333c0,-2.85851 1.33333,-3.82685 1.33333,-3.82685c0,0 1.29434,-2 4.72899,-2c4.89589,0 11.43144,0 14.33333,0c2.8155,0 4.63137,1.33334 4.63137,1.33334c0,0 2,2.02719 2,5.16018c0,6.01365 0,27.13846 0,38c0,3.96136 -1.16667,4.39086 -1.16667,4.39086c0,0 -1.49803,2.16667 -4.96471,2.16667c-4.85467,0 -11.28207,0 -14.16667,0c-2.84686,0 -5.06232,-2.16667 -5.06232,-2.16667c0,0 -1.66665,-1.01798 -1.66665,-5.7242z" fill="#a66f00" stroke="#a69066" stroke-width="5"/><path d="M65.57058,177.32362c0,-1.38071 1.11929,-2.5 2.5,-2.5c1.38071,0 2.5,1.11929 2.5,2.5c0,1.38071 -1.11929,2.5 -2.5,2.5c-1.38071,0 -2.5,-1.11929 -2.5,-2.5z" fill="#a69066" stroke="none" stroke-width="0.5"/></g><g data-paper-data="{&quot;index&quot;:null}" stroke-linecap="butt"><path d="M309.58486,144.78607c-2.8846,0 -9.312,0 -14.16667,0c-3.46668,0 -4.96471,-2.16667 -4.96471,-2.16667c0,0 -1.16667,-0.4295 -1.16667,-4.39086c0,-10.86154 0,-31.98635 0,-38c0,-3.13299 2,-5.16018 2,-5.16018c0,0 1.81587,-1.33334 4.63137,-1.33334c2.90189,0 9.43744,0 14.33333,0c3.43465,0 4.72899,2 4.72899,2c0,0 1.33333,0.96834 1.33333,3.82685c0,5.63541 0,25.94178 0,37.33333c0,4.70622 -1.66667,5.7242 -1.66667,5.7242c0,0 -2.21544,2.16667 -5.0623,2.16667z" fill="#a66f00" stroke="#a69066" stroke-width="5"/><path d="M296.79432,121.76055c-1.38071,0 -2.5,-1.11929 -2.5,-2.5c0,-1.38071 1.11929,-2.5 2.5,-2.5c1.38071,0 2.5,1.11929 2.5,2.5c0,1.38071 -1.11929,2.5 -2.5,2.5z" fill="#a69066" stroke="none" stroke-width="0.5"/></g><path d="M-27.20272,199.80755l-0.64854,-64.99635" fill="none" stroke="#e0ce00" stroke-width="15" stroke-linecap="round"/><path d="M-97.90151,401.75968v-465.12167h668.30116v465.12167z" fill="none" stroke="none" stroke-width="NaN" stroke-linecap="butt"/><text transform="translate(226.74906,381.44885) scale(0.15988,0.26165)" font-size="40" xml:space="preserve" fill="#000000" fill-rule="nonzero" stroke="none" stroke-width="1" stroke-linecap="butt" stroke-linejoin="miter" stroke-miterlimit="10" stroke-dasharray="" stroke-dashoffset="0" font-family="Sans Serif" font-weight="normal" text-anchor="start" style="mix-blend-mode: normal"><tspan x="0" dy="0">NATIONAL INSTITUTES OF HEALTH</tspan></text><path d="M146.62406,263.19885v-61.25h96.25v61.25z" fill="none" stroke="none" stroke-width="0" stroke-linecap="butt"/><path d="M-36.65152,122.44885l6.75,9.5" fill="none" stroke="#b77847" stroke-width="5" stroke-linecap="round"/><path d="M-30.15152,128.19885l0.5,-18.25" fill="none" stroke="#b77847" stroke-width="5" stroke-linecap="round"/><path d="M-22.90152,114.19885l-6.75,11l-5.75,-12.5" fill="none" stroke="#b77847" stroke-width="5" stroke-linecap="round"/><path d="M-17.65152,116.94885l-12.75,9.75" fill="none" stroke="#b77847" stroke-width="5" stroke-linecap="round"/><path d="M-26.65152,126.44885l12.5,-6" fill="none" stroke="#b77847" stroke-width="5" stroke-linecap="round"/><path d="M-15.15151,130.19885l-11.25,-2.25" fill="none" stroke="#b77847" stroke-width="5" stroke-linecap="round"/><path d="M-37.40152,136.19885l3,-4" fill="none" stroke="#b77847" stroke-width="5" stroke-linecap="round"/><path d="M-34.40152,128.69885l-5,-1.25" fill="none" stroke="#b77847" stroke-width="5" stroke-linecap="round"/><path d="M-22.90152,109.94885l-13.75,11" fill="none" stroke="#b77847" stroke-width="5" stroke-linecap="round"/><path d="M-38.65152,117.44885l9.25,7.75" fill="none" stroke="#b77847" stroke-width="5" stroke-linecap="round"/><path d="M33.77713,134.06498c0,0.85035 0.27743,3.64854 -1.0701,4.83828c-1.68255,1.48556 -5.06507,1.2969 -5.06507,1.2969c0,0 -20.27757,0 -24.54071,0c-3.47438,0 -6.02051,-1.97275 -6.02051,-5.44713c0,-3.44266 0,-7.59299 0,-9.51812c0,-3.1882 2.71762,-4.75906 5.90582,-4.75906c4.33684,0 17.47325,0 25.11409,0c3.291,0 5.67647,1.69741 5.67647,4.98841c0,3.03679 0,6.6886 0,8.60071z" fill="#ffffff" stroke="#000000" stroke-width="3" stroke-linecap="butt"/><path d="M5.4639,133.20877v-5.73381h19.95366v5.73381z" fill="#ff0000" stroke="#000000" stroke-width="2" stroke-linecap="butt"/><path d="M18.30763,139.51295h-5.73381v-18.34216h5.73381z" fill="#ff0000" stroke="#000000" stroke-width="2" stroke-linecap="butt"/><path d="M-5.21426,142.11883v-23.79552h41.30999v23.79552z" fill="none" stroke="none" stroke-width="0" stroke-linecap="butt"/><g stroke-linecap="butt"><g><path d="M408.57211,65.65407v-60.06006h61.56156v60.06006z" fill="#ffffff" stroke="#ffe8e8" stroke-width="5"/><g fill="#ffe8e8" stroke="none" stroke-width="0"><path d="M412.4443,39.62591v-2.40164h11.59309v2.40164z"/><path d="M423.12178,31.81391l5.66089,6.28561l-5.76184,6.73661z"/></g><g data-paper-data="{&quot;index&quot;:null}" fill="#ffe8e8" stroke="none" stroke-width="0"><path d="M455.18955,39.62591v-2.40163h11.59309v2.40163z"/><path d="M456.20612,44.83614l-5.76184,-6.7366l5.66089,-6.28562z"/></g><text transform="translate(416.4443,17.41508) scale(0.21773,0.21773)" font-size="40" xml:space="preserve" fill="#ffe8e8" fill-rule="nonzero" stroke="none" stroke-width="1" stroke-linecap="butt" stroke-linejoin="miter" stroke-miterlimit="10" stroke-dasharray="" stroke-dashoffset="0" font-family="Sans Serif" font-weight="normal" text-anchor="start" style="mix-blend-mode: normal"><tspan x="0" dy="0">Stand Here</tspan></text><g data-paper-data="{&quot;index&quot;:null}" fill="#ffe8e8" stroke="none" stroke-width="0"><path d="M438.38897,19.47736l2.40153,0.02244l-0.10833,11.59258l-2.40153,-0.02244z"/><path d="M446.10085,30.22738l-6.33824,5.6019l-6.68247,-5.82454z"/></g><g data-paper-data="{&quot;index&quot;:null}" fill="#ffe8e8" stroke="none" stroke-width="0"><path d="M437.94733,49.23671l2.40153,-0.02244l0.10832,11.59258l-2.40153,0.02244z"/><path d="M432.74682,50.30193l6.68247,-5.82454l6.33824,5.60191z"/></g></g><path d="M437.80785,41.45576v-4h4v4z" fill="#ffe0e0" stroke="none" stroke-width="0"/></g><path d="M448.15776,145.93721c0,0 -1.18064,-1.65784 -1.18064,-6.58767c0,-8.06451 0,-19.53656 0,-23.98379c0,-3.5297 1.18064,-5.40422 1.18064,-5.40422c0,0 1.36828,-2.49831 3.48848,-2.49831c3.08299,0 10.95563,0 16.23386,0c2.4756,0 3.89054,2.99797 3.89054,2.99797c0,0 1.18064,2.87383 1.18064,6.40354c0,4.07416 0,13.55944 0,20.98582c0,5.63546 -0.88548,7.58701 -0.88548,7.58701c0,0 -1.2521,2.49831 -4.1857,2.49831c-5.03027,0 -12.40098,0 -15.34837,0c-2.43374,0 -4.37397,-1.99865 -4.37397,-1.99865z" fill="#ff0000" stroke="#000000" stroke-width="3" stroke-linecap="butt"/><path d="M453.54609,136.43543v-4.66998h12.94021v4.66998z" fill="#000000" stroke="none" stroke-width="0" stroke-linecap="butt"/><path d="M463.79042,119.34039c0,-1.11693 0.66849,-2.02238 1.4931,-2.02238c0.82461,0 1.4931,0.90546 1.4931,2.02239c0,1.11693 -0.66848,2.02239 -1.4931,2.02239c-0.82461,0 -1.4931,-0.90546 -1.4931,-2.02238z" fill="#000000" stroke="none" stroke-width="0.5" stroke-linecap="butt"/><path d="M421.3588,82.94041l17.81913,31.07171l-34.94335,-14.74742z" fill="#ffffff" stroke="#0d0000" stroke-width="3" stroke-linecap="butt"/><path d="M453.62375,119.34039c0,-1.11693 0.66849,-2.02238 1.4931,-2.02238c0.82461,0 1.4931,0.90546 1.4931,2.02239c0,1.11693 -0.66848,2.02239 -1.4931,2.02239c-0.82461,0 -1.4931,-0.90546 -1.4931,-2.02238z" fill="#000000" stroke="none" stroke-width="0.5" stroke-linecap="butt"/><path d="M431.63893,87.25381c0,7.1797 -17.68475,13 -39.5,13c-21.81525,0 -39.5,-5.8203 -39.5,-13c0,-7.1797 17.68475,-13 39.5,-13c21.81525,0 39.5,5.8203 39.5,13z" fill="#ffffff" stroke="#0d0000" stroke-width="3" stroke-linecap="butt"/><text transform="translate(361.7433,85.98448) scale(0.08727,0.1472)" font-size="40" xml:space="preserve" fill="#0d0000" fill-rule="nonzero" stroke="none" stroke-width="1" stroke-linecap="butt" stroke-linejoin="miter" stroke-miterlimit="10" stroke-dasharray="" stroke-dashoffset="0" font-family="Malgun Gothic" font-weight="normal" text-anchor="start" style="mix-blend-mode: normal"><tspan x="0" dy="0">To become an infection preventionist</tspan><tspan x="0" dy="46.150000000000006px"> you must go through this simulator.</tspan></text><path d="M331.73299,150.13801v-154.16667h143.3489v154.16667z" fill="none" stroke="none" stroke-width="0" stroke-linecap="butt"/><path d="M201.075,236.26666l-9.475,-5.45l9.775,-6.15h31.625v12z" data-paper-data="{&quot;index&quot;:null}" fill="#ffffff" stroke="#100000" stroke-width="2.5" stroke-linecap="butt"/><text transform="translate(203.32122,232.31825) scale(0.14703,0.14703)" font-size="40" xml:space="preserve" data-paper-data="{&quot;index&quot;:null}" fill="#002dff" fill-rule="nonzero" stroke="none" stroke-width="1" stroke-linecap="butt" stroke-linejoin="miter" stroke-miterlimit="10" stroke-dasharray="" stroke-dashoffset="0" font-family="Sans Serif" font-weight="normal" text-anchor="start" style="mix-blend-mode: normal"><tspan x="0" dy="0">Students</tspan></text><path d="M304.26667,236.66666v-12h31.625l9.775,6.15l-9.475,5.45z" data-paper-data="{&quot;index&quot;:null}" fill="#ffffff" stroke="#100000" stroke-width="2.5" stroke-linecap="butt"/><text transform="translate(307.98789,232.31825) scale(0.14703,0.14703)" font-size="40" xml:space="preserve" data-paper-data="{&quot;index&quot;:null}" fill="#002dff" fill-rule="nonzero" stroke="none" stroke-width="1" stroke-linecap="butt" stroke-linejoin="miter" stroke-miterlimit="10" stroke-dasharray="" stroke-dashoffset="0" font-family="Sans Serif" font-weight="normal" text-anchor="start" style="mix-blend-mode: normal"><tspan x="0" dy="0">Doctors</tspan></text></g></g></svg>