<svg version="1.1" xmlns="http://www.w3.org/2000/svg" xmlns:xlink="http://www.w3.org/1999/xlink" width="145.41482" height="81.08937" viewBox="0,0,145.41482,81.08937"><g transform="translate(-183.47658,-142.56429)"><g data-paper-data="{&quot;isPaintingLayer&quot;:true}" fill-rule="nonzero" stroke="#000000" stroke-linecap="butt" stroke-linejoin="miter" stroke-miterlimit="10" stroke-dasharray="" stroke-dashoffset="0" style="mix-blend-mode: normal"><path d="M210.54358,183.30802c0,-3.9306 4.32128,-7.43651 4.32128,-7.43651c0,0 4.4404,-1.6074 10.21032,-1.74588c10.116,-0.24278 43.37559,-1.04101 63.38275,-1.52118c9.24111,-0.22179 10.19075,2.5385 10.19075,2.5385c0,0 5.46416,4.74265 5.46416,8.74266c0,4.24265 -2.18566,8.74266 -2.18566,8.74266c0,0 -2.24508,4.37133 -9.10694,4.37133c-20.23792,0 -61.62312,0 -72.8555,0c-5.50994,0 -8.74266,-5.46416 -8.74266,-5.46416c0,0 -0.6785,-3.93326 -0.6785,-8.22742z" fill="#ff7373" stroke-width="6"/><path d="M236.68859,161.12322c6.66711,10.23877 11.39805,18.9777 10.56686,19.51894c-0.83119,0.54124 -6.90976,-7.32016 -13.57687,-17.55893c-6.66711,-10.23877 -11.39805,-18.9777 -10.56686,-19.51894c0.83119,-0.54124 6.90976,7.32016 13.57687,17.55893z" fill="#ff4646" stroke-width="2"/><path d="M295.42278,193.8468c9.10675,8.14554 15.95318,15.34811 15.29192,16.08741c-0.66126,0.7393 -8.5798,-5.26466 -17.68655,-13.41019c-9.10675,-8.14554 -15.95318,-15.34811 -15.29192,-16.08741c0.66126,-0.7393 8.57981,5.26465 17.68656,13.41019z" fill="#ff3a3a" stroke-width="2"/><path d="M262.18251,201.60265c4.79796,11.23665 7.94799,20.66151 7.03579,21.05101c-0.9122,0.3895 -5.5412,-8.40385 -10.33916,-19.6405c-4.79796,-11.23665 -7.948,-20.66151 -7.0358,-21.05101c0.9122,-0.3895 5.5412,8.40385 10.33916,19.6405z" fill="#ff3535" stroke-width="2"/><path d="M223.65015,197.84811c-8.95243,8.31485 -16.75701,14.46621 -17.43201,13.73945c-0.67501,-0.72677 6.03517,-8.05644 14.9876,-16.37129c8.95243,-8.31485 16.757,-14.46622 17.43201,-13.73945c0.67501,0.72677 -6.03517,8.05645 -14.9876,16.3713z" fill="#ff0c0c" stroke-width="2"/><path d="M307.55822,166.80709c10.75977,-5.78879 19.86324,-9.77344 20.33318,-8.89995c0.46994,0.87349 -7.87162,6.27433 -18.63139,12.06312c-10.75977,5.78879 -19.86324,9.77344 -20.33318,8.89995c-0.46994,-0.87349 7.87162,-6.27433 18.63138,-12.06313z" fill="#ff3c3c" stroke-width="2"/><path d="M270.24583,168.62594c-3.14208,11.8072 -6.46627,21.17206 -7.42479,20.91698c-0.95852,-0.25508 0.81161,-10.03349 3.95369,-21.84069c3.14208,-11.8072 6.46626,-21.17206 7.42478,-20.91698c0.95852,0.25508 -0.81161,10.03349 -3.95368,21.84069z" fill="#ff1d1d" stroke-width="2"/><path d="M206.00609,173.91297c11.56626,3.93756 20.68344,7.89075 20.36378,8.82971c-0.31965,0.93896 -9.95509,-1.49189 -21.52135,-5.42945c-11.56626,-3.93756 -20.68344,-7.89075 -20.36378,-8.82971c0.31965,-0.93896 9.95509,1.49189 21.52135,5.42944z" fill="#ff1111" stroke-width="2"/></g></g></svg>