<svg version="1.1" xmlns="http://www.w3.org/2000/svg" xmlns:xlink="http://www.w3.org/1999/xlink" width="295.49029" height="272.94001" viewBox="0,0,295.49029,272.94001"><g transform="translate(-92.25485,-43.52999)"><g data-paper-data="{&quot;isPaintingLayer&quot;:true}" fill-rule="nonzero" stroke-linecap="butt" stroke-linejoin="miter" stroke-miterlimit="10" stroke-dasharray="" stroke-dashoffset="0" style="mix-blend-mode: normal"><g><path d="M111.14077,297.58404c0,0 -12.88592,-10.6886 -12.88592,-42.47282c0,-51.99448 0,-125.95844 0,-154.63113c0,-22.7571 12.88592,-34.84269 12.88592,-34.84269c0,0 14.93389,-16.10741 38.07441,-16.10741c33.64869,0 119.5732,0 177.18146,0c27.01954,0 42.46258,19.32891 42.46258,19.32891c0,0 12.88592,18.52851 12.88592,41.28567c0,26.26737 0,87.422 0,135.30222c0,36.33359 -9.66442,48.9158 -9.66442,48.9158c0,0 -13.66586,16.10741 -45.68407,16.10741c-54.90199,0 -135.3483,0 -167.51704,0c-26.56259,0 -47.73889,-12.88592 -47.73889,-12.88592z" fill="#66e5ff" stroke="#000000" stroke-width="12"/><path d="M169.95083,255.35234v-26.0739h141.23364v26.0739z" fill="#000000" stroke="none" stroke-width="0"/><path d="M198.19754,172.78498v-67.35754h19.55542v67.35754z" fill="#000000" stroke="none" stroke-width="0"/><path d="M252.5182,172.78498v-67.35761h19.55542v67.35761z" fill="#000000" stroke="none" stroke-width="0"/></g></g></g></svg>