<svg version="1.1" xmlns="http://www.w3.org/2000/svg" xmlns:xlink="http://www.w3.org/1999/xlink" width="50.45434" height="86.04012" viewBox="0,0,50.45434,86.04012"><g transform="translate(-214.77283,-136.97994)"><g data-paper-data="{&quot;isPaintingLayer&quot;:true}" fill-rule="nonzero" stroke-linejoin="miter" stroke-miterlimit="10" stroke-dasharray="" stroke-dashoffset="0" style="mix-blend-mode: normal"><path d="M230.61535,205.69516l0.0081,-33.03302l19.51952,0.00479l-0.0081,33.03303z" data-paper-data="{&quot;index&quot;:null}" fill="#ffffff" stroke="#000c0c" stroke-width="0" stroke-linecap="butt"/><path d="M218.60154,219.08087l0.00337,-13.76377l42.79354,0.01049l-0.00337,13.76376z" data-paper-data="{&quot;index&quot;:null}" fill="#ffffff" stroke="#000c0c" stroke-width="5" stroke-linecap="butt"/><path d="M232.75719,182.90867c0,0 7.42964,-0.06856 14.75,0.00362" data-paper-data="{&quot;index&quot;:null}" fill="none" stroke="#0021ff" stroke-width="5" stroke-linecap="round"/><path d="M232.75542,190.15866c0,0 7.42963,-0.06856 14.74999,0.00362" data-paper-data="{&quot;index&quot;:null}" fill="none" stroke="#0021ff" stroke-width="5" stroke-linecap="round"/><path d="M232.50358,197.6586c0,0 7.42963,-0.06856 14.74999,0.00362" data-paper-data="{&quot;index&quot;:null}" fill="none" stroke="#0021ff" stroke-width="5" stroke-linecap="round"/><path d="M229.25174,205.1578l0.00729,-29.75l21.75,0.00533l-0.00729,29.75z" data-paper-data="{&quot;index&quot;:null}" fill="none" stroke="#000000" stroke-width="5" stroke-linecap="butt"/><path d="M232.75903,175.40865l0.00846,-34.5l14.99999,0.00369l-0.00846,34.5z" data-paper-data="{&quot;index&quot;:null}" fill="#ffffff" stroke="#000000" stroke-width="5" stroke-linecap="butt"/><path d="M257.25003,212.16466c-0.00033,1.38071 -1.1199,2.49972 -2.50061,2.49938c-1.38072,-0.00033 -2.49973,-1.1199 -2.49939,-2.50061c0.00033,-1.38071 1.1199,-2.49972 2.50061,-2.49938c1.38071,0.00033 2.49972,1.1199 2.49938,2.50061z" data-paper-data="{&quot;index&quot;:null}" fill="#000000" stroke="none" stroke-width="0.5" stroke-linecap="butt"/><path d="M225.4994,214.65688c-1.38071,-0.00033 -2.49972,-1.1199 -2.49938,-2.50061c0.00033,-1.38071 1.1199,-2.49972 2.50061,-2.49938c1.38071,0.00033 2.49972,1.1199 2.49938,2.50061c-0.00033,1.38071 -1.1199,2.49972 -2.50061,2.49938z" data-paper-data="{&quot;index&quot;:null}" fill="#000000" stroke="none" stroke-width="0.5" stroke-linecap="butt"/><path d="M214.77283,223.02006v-86.04012h50.45434v86.04012z" fill="none" stroke="none" stroke-width="0" stroke-linecap="butt"/></g></g></svg>