<svg version="1.1" xmlns="http://www.w3.org/2000/svg" xmlns:xlink="http://www.w3.org/1999/xlink" width="546.54054" height="429.42342" viewBox="0,0,546.54054,429.42342"><g transform="translate(27.26426,24.70172)"><g data-paper-data="{&quot;isPaintingLayer&quot;:true}" fill-rule="nonzero" stroke-width="6" stroke-linecap="butt" stroke-linejoin="miter" stroke-miterlimit="10" stroke-dasharray="" stroke-dashoffset="0" style="mix-blend-mode: normal"><path d="M-24.26426,401.72171v-423.42342h540.54054v423.42342z" fill="#ff7575" stroke="#efff00"/><path d="M131.89189,121.69168c0,24.46306 -17.8145,44.29429 -39.78979,44.29429c-21.97529,0 -39.78979,-19.83123 -39.78979,-44.29429c0,-24.46306 17.8145,-44.29429 39.78979,-44.29429c21.97529,0 39.78979,19.83123 39.78979,44.29429z" fill="#ff4c4c" stroke="#ff0000"/><path d="M247.50751,281.60159c0,29.02397 -17.47837,52.55255 -39.03904,52.55255c-21.56067,0 -39.03904,-23.52858 -39.03904,-52.55255c0,-29.02397 17.47837,-52.55255 39.03904,-52.55255c21.56067,0 39.03904,23.52858 39.03904,52.55255z" fill="#ff4c4c" stroke="#ff0000"/><path d="M176.93694,153.97396c0,9.95108 48.73777,18.01802 108.85886,18.01802c60.12109,0 108.85886,-8.06694 108.85886,-18.01802c0,-9.95108 -48.73777,-18.01802 -108.85886,-18.01802c-60.12109,0 -108.85886,8.06694 -108.85886,18.01802z" fill="#ff4c4c" stroke="#ff0000"/><path d="M456.21622,286.85684c0,26.12158 -12.10041,47.2973 -27.02703,47.2973c-14.92661,0 -27.02703,-21.17572 -27.02703,-47.2973c0,-26.12158 12.10041,-47.2973 27.02703,-47.2973c14.92661,0 27.02703,21.17572 27.02703,47.2973z" fill="#ff4c4c" stroke="#ff0000"/><path d="M367.62763,30.10008c0,3.73165 7.05857,6.75676 15.76577,6.75676c8.70719,0 15.76577,-3.0251 15.76577,-6.75676c0,-3.73165 -7.05857,-6.75676 -15.76577,-6.75676c-8.70719,0 -15.76577,3.0251 -15.76577,6.75676z" fill="#ff4c4c" stroke="#ff0000"/></g></g></svg>