<svg version="1.1" xmlns="http://www.w3.org/2000/svg" xmlns:xlink="http://www.w3.org/1999/xlink" width="572" height="429" viewBox="0,0,572,429"><g transform="translate(189.25,-56.5)"><g data-paper-data="{&quot;isPaintingLayer&quot;:true}" fill-rule="nonzero" stroke-linejoin="miter" stroke-miterlimit="10" stroke-dasharray="" stroke-dashoffset="0" style="mix-blend-mode: normal"><path d="M-162.75,468v-394h519v394z" fill="#ffffff" stroke="#000000" stroke-width="5" stroke-linecap="butt"/><path d="M-43.49137,371.6537c0,0 -1.83934,-1.94147 -1.83934,-5.8933c0,-5.58276 0,-20.20427 0,-20.20427c0,0 116.2465,0 137.64356,0c6.50653,0 9.04999,2.45175 9.04999,2.45175c0,0 3.67763,3.64791 3.67763,7.57301c0,5.58596 0,20.30331 0,20.30331c0,0 -124.0321,0 -142.28889,0c-4.35116,0 -6.24294,-4.2305 -6.24294,-4.2305z" fill="#ffffff" stroke="#000000" stroke-width="5" stroke-linecap="butt"/><path d="M150.73783,376.24907c0,0 0,-17.07187 0,-22.62959c0,-3.24161 3.18728,-5.98225 3.18728,-5.98225c0,0 1.80452,-1.71622 7.52714,-1.71622c19.19045,0 126.92581,0 162.51872,0c7.17116,0 8.65242,2.39322 8.65242,2.39322c0,0 2.76142,2.46374 2.76142,5.88613c0,2.85461 0,8.55121 0,13.43886c0,4.67498 -1.28866,6.03254 -1.28866,6.03254c0,0 -2.45652,2.57732 -6.99558,2.57732c-20.94322,0 -176.36273,0 -176.36273,0z" fill="#ffffff" stroke="#000000" stroke-width="5" stroke-linecap="butt"/><path d="M-42.87613,247.63066c0,0 -2.20913,-2.11259 -2.20913,-6.58166c0,-7.87275 0,-32.61215 0,-32.61215h28.74743c0,0 0,25.27113 0,33.10307c0,4.30852 -2.45459,7.07257 -2.45459,7.07257c0,0 -2.18028,2.9455 -7.3704,2.9455c-3.95216,0 -8.32939,0 -10.62273,0c-3.37984,0 -6.09059,-3.92733 -6.09059,-3.92733z" fill="#ffffff" stroke="#000000" stroke-width="5" stroke-linecap="butt"/><path d="M36.86739,285.28818c0,0 -1.48415,-1.9873 -1.48415,-5.79306c0,-3.14481 0,-9.2892 0,-13.97902c0,-3.51857 2.59727,-4.74692 2.59727,-4.74692c0,0 1.02226,-1.47148 5.77377,-1.47148c27.22836,0 274.88879,0 274.88879,0c0,0 0,13.94789 0,19.42393c0,4.01257 -1.84094,7.11547 -1.84094,7.11547c0,0 -1.67942,3.3137 -7.92686,3.3137c-46.15323,0 -241.1389,0 -265.12097,0c-4.75152,0 -6.88689,-3.86263 -6.88689,-3.86263z" fill="#ffffff" stroke="#000000" stroke-width="5" stroke-linecap="butt"/><g stroke-linecap="butt"><path d="M36.67133,330.51357c0,-8.38847 0,-23.3416 0,-27.49139c0,-2.10494 0.98183,-2.818 0.98183,-2.818c0,0 0.95311,-1.47275 3.48231,-1.47275c3.60522,0 8.41785,0 10.55473,0c2.07327,0 3.41043,0.98184 3.41043,0.98184c0,0 1.47276,1.49276 1.47276,3.79983c0,4.42831 0,19.98413 0,27.98232c0,2.91705 -0.85911,3.23333 -0.85911,3.23333c0,0 -1.10312,1.59548 -3.6559,1.59548c-3.57486,0 -8.30785,0 -10.432,0c-2.09636,0 -3.72778,-1.59548 -3.72778,-1.59548c0,0 -1.22727,-0.74962 -1.22727,-4.21517z" fill="#a66f00" stroke="#a69066" stroke-width="5"/><path d="M49.20411,317.52784c0,-1.01673 0.82422,-1.84094 1.84094,-1.84094c1.01673,0 1.84094,0.82422 1.84094,1.84094c0,1.01673 -0.82422,1.84094 -1.84094,1.84094c-1.01673,0 -1.84094,-0.82422 -1.84094,-1.84094z" fill="#a69066" stroke="none" stroke-width="0.5"/></g><path d="M186.30172,331.86357c0,-7.74415 0,-22.54224 0,-27.12319c0,-2.64922 1.10457,-3.92587 1.10457,-3.92587c0,0 1.25374,-1.71821 4.07274,-1.71821c2.83742,0 7.36887,0 9.2047,0c2.62107,0 3.55638,1.10456 3.55638,1.10456c0,0 1.96367,1.28801 1.96367,4.17133c0,4.53793 0,19.17495 0,26.87775c0,3.24912 -0.73637,3.84368 -0.73637,3.84368c0,0 -1.32601,1.59547 -3.92458,1.59547c-3.14315,0 -7.07076,0 -9.08197,0c-2.45954,0 -4.44094,-1.22728 -4.44094,-1.22728c0,0 -1.7182,-0.68706 -1.7182,-3.59823z" fill="#a66f00" stroke="#ac9469" stroke-width="5" stroke-linecap="butt"/><path d="M191.83007,319.73364c-1.01673,0 -1.84093,-0.82422 -1.84093,-1.84094c0,-1.01673 0.82421,-1.84093 1.84093,-1.84093c1.01673,0 1.84094,0.82421 1.84094,1.84093c0,1.01673 -0.82422,1.84094 -1.84094,1.84094z" fill="#ac9469" stroke="none" stroke-width="0.5" stroke-linecap="butt"/><path d="M135.25844,162.36357c0,0 0,-37.88172 0,-46.64398c0,-3.43772 2.20913,-5.15464 2.20913,-5.15464c0,0 2.35308,-2.02503 5.25719,-2.02503c4.06758,0 14.64709,0 14.64709,0v53.82365z" fill="#ffffff" stroke="#000000" stroke-width="5" stroke-linecap="butt"/><path d="M158.29508,139.51486v-30.95877h114.98973v30.95877z" fill="#ffffff" stroke="#000000" stroke-width="5" stroke-linecap="butt"/><path d="M275.49616,258.92728v-150.37117c0,0 25.98234,0 33.74728,0c4.0924,0 6.06018,1.84094 6.06018,1.84094c0,0 3.31369,1.98626 3.31369,6.4271c0,18.41051 0,142.10313 0,142.10313z" fill="#ffffff" stroke="#000000" stroke-width="5" stroke-linecap="butt"/><path d="M-45.33293,208.43687c0,0 0,-30.27421 0,-38.32535c0,-3.70425 2.76142,-5.71958 2.76142,-5.71958c0,0 1.87271,-2.39323 7.36377,-2.39323c23.94759,0 192.58181,0 192.58181,0c0,0 0,27.70509 0,36.09511c0,4.49121 -2.20912,7.21345 -2.20912,7.21345c0,0 -2.81316,3.1296 -8.67178,3.1296c-24.59894,0 -191.82609,0 -191.82609,0z" fill="#ffffff" stroke="#000000" stroke-width="5" stroke-linecap="butt"/><path d="M274.33943,222.13519c0,-0.82248 0.49226,-1.48923 1.09948,-1.48923c0.60722,0 1.09949,0.66676 1.09949,1.48924c0,0.82248 -0.49227,1.48923 -1.09949,1.48923c-0.60722,0 -1.09948,-0.66676 -1.09948,-1.48923z" fill="#000000" stroke="none" stroke-width="0.5" stroke-linecap="butt"/><path d="M84.95155,414.27401v-37.5928h20.08611v37.5928z" fill="#ffffff" stroke="#000000" stroke-width="5" stroke-linecap="butt"/><path d="M150.73502,414.63887v-37.59279h19.71802v37.59279z" fill="#ffffff" stroke="#000000" stroke-width="5" stroke-linecap="butt"/><path d="M86.66775,431.23397c0,0 -1.71622,-2.5471 -1.71622,-5.5058c0,-3.27466 0,-10.3485 0,-10.3485h85.50592c0,0 0,8.39594 0,11.81955c0,2.63035 -1.47105,4.77028 -1.47105,4.77028c0,0 -1.60644,2.20657 -6.55347,2.20657c-17.88169,0 -60.18987,0 -69.87492,0c-3.86366,0 -5.89026,-2.9421 -5.89026,-2.9421z" fill="#ffffff" stroke="#000000" stroke-width="5" stroke-linecap="butt"/><path d="M-45.33405,345.39181v-43.12115c0,0 14.12423,0 19.41669,0c3.74051,0 6.38524,1.96368 6.38524,1.96368c0,0 2.9455,2.58173 2.9455,6.27951c0,7.60622 0,34.87796 0,34.87796z" fill="#ffffff" stroke="#000000" stroke-width="5" stroke-linecap="butt"/><path d="M-110.62995,222.0307v-22.11341h65.23456v22.11341z" fill="#ffffff" stroke="#000000" stroke-width="5" stroke-linecap="butt"/><path d="M-110.2695,324.59694v-22.2754h64.99297v22.2754z" fill="#ffffff" stroke="#000000" stroke-width="5" stroke-linecap="butt"/><path d="M-136.74203,322.35573c0,0 -2.20913,-0.91003 -2.20913,-6.41122c0,-24.58398 0,-93.24611 0,-106.97197c0,-4.68187 2.57732,-6.77438 2.57732,-6.77438c0,0 2.59223,-2.20588 6.07511,-2.20588c5.30779,0 20.09501,0 20.09501,0v124.57258c0,0 -15.3461,0 -20.64728,0c-3.32038,0 -5.89102,-2.20913 -5.89102,-2.20913z" fill="#ffffff" stroke="#000000" stroke-width="5" stroke-linecap="butt"/><g stroke-linecap="butt"><path d="M-41.46639,289.96862c0,-8.38847 0,-23.3416 0,-27.49139c0,-2.10494 0.98183,-2.818 0.98183,-2.818c0,0 0.95311,-1.47276 3.48231,-1.47276c3.60522,0 8.41785,0 10.55473,0c2.07327,0 3.41043,0.98184 3.41043,0.98184c0,0 1.47276,1.49277 1.47276,3.79984c0,4.42831 0,19.98412 0,27.98231c0,2.91705 -0.85911,3.23333 -0.85911,3.23333c0,0 -1.10312,1.59549 -3.6559,1.59549c-3.57486,0 -8.30785,0 -10.432,0c-2.09636,0 -3.72778,-1.59549 -3.72778,-1.59549c0,0 -1.22727,-0.74961 -1.22727,-4.21516z" fill="#a66f00" stroke="#a69066" stroke-width="5"/><path d="M-28.93364,276.98289c0,-1.01673 0.82422,-1.84093 1.84094,-1.84093c1.01673,0 1.84094,0.82421 1.84094,1.84093c0,1.01673 -0.82422,1.84094 -1.84094,1.84094c-1.01673,0 -1.84094,-0.82422 -1.84094,-1.84094z" fill="#a69066" stroke="none" stroke-width="0.5"/></g><g data-paper-data="{&quot;index&quot;:null}" stroke-linecap="butt"><path d="M150.75275,253.02301c-2.12415,0 -6.85714,0 -10.432,0c-2.55278,0 -3.65589,-1.59549 -3.65589,-1.59549c0,0 -0.85912,-0.31628 -0.85912,-3.23333c0,-7.99818 0,-23.55399 0,-27.98231c0,-2.30706 1.47276,-3.79984 1.47276,-3.79984c0,0 1.33717,-0.98184 3.41044,-0.98184c2.13689,0 6.94951,0 10.55473,0c2.5292,0 3.48231,1.47276 3.48231,1.47276c0,0 0.98184,0.71306 0.98184,2.818c0,4.14978 0,19.10292 0,27.49139c0,3.46555 -1.2273,4.21516 -1.2273,4.21516c0,0 -1.63139,1.59549 -3.72776,1.59549z" fill="#a66f00" stroke="#a69066" stroke-width="5"/><path d="M141.3341,236.06755c-1.01673,0 -1.84094,-0.82421 -1.84094,-1.84093c0,-1.01673 0.82422,-1.84094 1.84094,-1.84094c1.01673,0 1.84094,0.82422 1.84094,1.84094c0,1.01673 -0.82422,1.84093 -1.84094,1.84093z" fill="#a69066" stroke="none" stroke-width="0.5"/></g><path d="M-97.24972,293.53953l-0.47756,-47.86179" fill="none" stroke="#e0ce00" stroke-width="15" stroke-linecap="round"/><path d="M-149.31064,442.25234v-342.50468h492.12129v342.50468z" fill="none" stroke="none" stroke-width="NaN" stroke-linecap="butt"/><text transform="translate(89.75441,427.29592) scale(0.11773,0.19267)" font-size="40" xml:space="preserve" fill="#000000" fill-rule="nonzero" stroke="none" stroke-width="1" stroke-linecap="butt" stroke-linejoin="miter" stroke-miterlimit="10" stroke-dasharray="" stroke-dashoffset="0" font-family="Sans Serif" font-weight="normal" text-anchor="start" style="mix-blend-mode: normal"><tspan x="0" dy="0">NATIONAL INSTITUTES OF HEALTH</tspan></text><path d="M30.75224,340.21939v-45.10306h70.87624v45.10306z" fill="none" stroke="none" stroke-width="0" stroke-linecap="butt"/><path d="M-104.20759,236.5744l4.97054,6.99557" fill="none" stroke="#b77847" stroke-width="5" stroke-linecap="round"/><path d="M-99.42114,240.80857l0.36819,-13.43887" fill="none" stroke="#b77847" stroke-width="5" stroke-linecap="round"/><path d="M-94.08241,230.4993l-4.97054,8.10014l-4.23416,-9.20471" fill="none" stroke="#b77847" stroke-width="5" stroke-linecap="round"/><path d="M-90.21644,232.52433l-9.3888,7.17967" fill="none" stroke="#b77847" stroke-width="5" stroke-linecap="round"/><path d="M-96.84382,239.51991l9.2047,-4.41826" fill="none" stroke="#b77847" stroke-width="5" stroke-linecap="round"/><path d="M-88.37548,242.28131l-8.28424,-1.65685" fill="none" stroke="#b77847" stroke-width="5" stroke-linecap="round"/><path d="M-104.75987,246.69958l2.20913,-2.9455" fill="none" stroke="#b77847" stroke-width="5" stroke-linecap="round"/><path d="M-102.55074,241.17675l-3.68189,-0.92047" fill="none" stroke="#b77847" stroke-width="5" stroke-linecap="round"/><path d="M-94.08241,227.36969l-10.12517,8.10014" fill="none" stroke="#b77847" stroke-width="5" stroke-linecap="round"/><path d="M-105.68034,232.89252l6.81148,5.70692" fill="none" stroke="#b77847" stroke-width="5" stroke-linecap="round"/><path d="M-52.34558,245.12824c0,0.62618 0.2043,2.68671 -0.788,3.5628c-1.23899,1.09393 -3.7298,0.955 -3.7298,0.955c0,0 -14.93193,0 -18.07121,0c-2.55845,0 -4.43336,-1.45269 -4.43336,-4.01114c0,-2.53509 0,-5.59129 0,-7.00891c0,-2.34771 2.00119,-3.50446 4.34891,-3.50446c3.19355,0 12.8669,0 18.49343,0c2.42341,0 4.18002,1.24993 4.18002,3.67334c0,2.23622 0,4.92534 0,6.33337z" fill="#ffffff" stroke="#000000" stroke-width="3" stroke-linecap="butt"/><path d="M-73.19478,244.49775v-4.22224h14.69341v4.22224z" fill="#ff0000" stroke="#000000" stroke-width="2" stroke-linecap="butt"/><path d="M-63.73696,249.14h-4.22225v-13.50674h4.22225z" fill="#ff0000" stroke="#000000" stroke-width="2" stroke-linecap="butt"/><path d="M-81.05793,251.05891v-17.52246h30.41971v17.52246z" fill="none" stroke="none" stroke-width="0" stroke-linecap="butt"/><g stroke-linecap="butt"><g><path d="M223.64464,194.75206v-44.22682h45.33249v44.22682z" fill="#ffffff" stroke="#ffe8e8" stroke-width="5"/><g fill="#ffe8e8" stroke="none" stroke-width="0"><path d="M226.49603,175.58553v-1.76851h8.53687v1.76851z"/><path d="M234.35867,169.83296l4.16854,4.62858l-4.24288,4.96068z"/></g><g data-paper-data="{&quot;index&quot;:null}" fill="#ffe8e8" stroke="none" stroke-width="0"><path d="M257.97263,175.58553v-1.7685h8.53688v1.7685z"/><path d="M258.72121,179.42223l-4.24288,-4.96068l4.16854,-4.62858z"/></g><text transform="translate(229.44153,159.23) scale(0.16033,0.16033)" font-size="40" xml:space="preserve" fill="#ffe8e8" fill-rule="nonzero" stroke="none" stroke-width="1" stroke-linecap="butt" stroke-linejoin="miter" stroke-miterlimit="10" stroke-dasharray="" stroke-dashoffset="0" font-family="Sans Serif" font-weight="normal" text-anchor="start" style="mix-blend-mode: normal"><tspan x="0" dy="0">Stand Here</tspan></text><g data-paper-data="{&quot;index&quot;:null}" fill="#ffe8e8" stroke="none" stroke-width="0"><path d="M245.60108,160.74861l1.76843,0.01652l-0.07977,8.53651l-1.76843,-0.01652z"/><path d="M251.27993,168.66467l-4.66734,4.12511l-4.92081,-4.28906z"/></g><g data-paper-data="{&quot;index&quot;:null}" fill="#ffe8e8" stroke="none" stroke-width="0"><path d="M245.27585,182.6627l1.76843,-0.01653l0.07977,8.53651l-1.76843,0.01652z"/><path d="M241.44633,183.4471l4.92082,-4.28905l4.66734,4.12511z"/></g></g><path d="M245.17315,176.93299v-2.9455h2.9455v2.9455z" fill="#ffe0e0" stroke="none" stroke-width="0"/></g><path d="M252.79459,253.87068c0,0 -0.8694,-1.2208 -0.8694,-4.85101c0,-5.93851 0,-14.38625 0,-17.66109c0,-2.59919 0.8694,-3.97954 0.8694,-3.97954c0,0 1.00757,-1.83971 2.56883,-1.83971c2.27024,0 8.06747,0 11.95423,0c1.82297,0 2.86491,2.20764 2.86491,2.20764c0,0 0.86939,2.11622 0.86939,4.71541c0,3.00011 0,9.98485 0,15.45346c0,4.14982 -0.65204,5.5869 -0.65204,5.5869c0,0 -0.92202,1.83971 -3.08225,1.83971c-3.70417,0 -9.13178,0 -11.30218,0c-1.79214,0 -3.22088,-1.47177 -3.22088,-1.47177z" fill="#ff0000" stroke="#000000" stroke-width="3" stroke-linecap="butt"/><path d="M256.76243,246.87379v-3.43886h9.52887v3.43886z" fill="#000000" stroke="none" stroke-width="0" stroke-linecap="butt"/><path d="M264.30611,234.28541c0,-0.82248 0.49226,-1.48924 1.09948,-1.48924c0.60722,0 1.09948,0.66676 1.09948,1.48924c0,0.82248 -0.49225,1.48924 -1.09948,1.48924c-0.60722,0 -1.09948,-0.66676 -1.09948,-1.48923z" fill="#000000" stroke="none" stroke-width="0.5" stroke-linecap="butt"/><path d="M233.06046,207.48132l13.12159,22.88047l-25.73146,-10.85965z" fill="#ffffff" stroke="#0d0000" stroke-width="3" stroke-linecap="butt"/><path d="M256.81962,234.28541c0,-0.82248 0.49226,-1.48924 1.09948,-1.48924c0.60722,0 1.09948,0.66676 1.09948,1.48924c0,0.82248 -0.49225,1.48924 -1.09948,1.48924c-0.60722,0 -1.09948,-0.66676 -1.09948,-1.48923z" fill="#000000" stroke="none" stroke-width="0.5" stroke-linecap="butt"/><path d="M240.6305,210.6576c0,5.28696 -13.02263,9.5729 -29.08687,9.5729c-16.06424,0 -29.08688,-4.28594 -29.08688,-9.5729c0,-5.28696 13.02264,-9.5729 29.08688,-9.5729c16.06424,0 29.08687,4.28594 29.08687,9.5729z" fill="#ffffff" stroke="#0d0000" stroke-width="3" stroke-linecap="butt"/><text transform="translate(189.161,209.7229) scale(0.06427,0.1084)" font-size="40" xml:space="preserve" fill="#0d0000" fill-rule="nonzero" stroke="none" stroke-width="1" stroke-linecap="butt" stroke-linejoin="miter" stroke-miterlimit="10" stroke-dasharray="" stroke-dashoffset="0" font-family="Malgun Gothic" font-weight="normal" text-anchor="start" style="mix-blend-mode: normal"><tspan x="0" dy="0">To become an infection preventionist</tspan><tspan x="0" dy="46.150000000000006px"> you must go through this simulator.</tspan></text><path d="M167.06211,256.96405v-113.52472h105.55876v113.52472z" fill="none" stroke="none" stroke-width="0" stroke-linecap="butt"/><path d="M70.84864,320.38717l-6.97717,-4.01326l7.19808,-4.52871h23.28791v8.83652z" data-paper-data="{&quot;index&quot;:null}" fill="#ffffff" stroke="#100000" stroke-width="2.5" stroke-linecap="butt"/><text transform="translate(72.5027,317.47965) scale(0.10827,0.10827)" font-size="40" xml:space="preserve" data-paper-data="{&quot;index&quot;:null}" fill="#002dff" fill-rule="nonzero" stroke="none" stroke-width="1" stroke-linecap="butt" stroke-linejoin="miter" stroke-miterlimit="10" stroke-dasharray="" stroke-dashoffset="0" font-family="Sans Serif" font-weight="normal" text-anchor="start" style="mix-blend-mode: normal"><tspan x="0" dy="0">Students</tspan></text><path d="M146.83656,320.68172v-8.83652h23.28791l7.19808,4.52871l-6.97717,4.01326z" data-paper-data="{&quot;index&quot;:null}" fill="#ffffff" stroke="#100000" stroke-width="2.5" stroke-linecap="butt"/><text transform="translate(149.57677,317.47965) scale(0.10827,0.10827)" font-size="40" xml:space="preserve" data-paper-data="{&quot;index&quot;:null}" fill="#002dff" fill-rule="nonzero" stroke="none" stroke-width="1" stroke-linecap="butt" stroke-linejoin="miter" stroke-miterlimit="10" stroke-dasharray="" stroke-dashoffset="0" font-family="Sans Serif" font-weight="normal" text-anchor="start" style="mix-blend-mode: normal"><tspan x="0" dy="0">Doctors</tspan></text><path d="M-189.25,485.5v-429h572v429z" fill="none" stroke="none" stroke-width="0" stroke-linecap="butt"/><path d="M135.5,396c0,4.41828 -3.58172,8 -8,8c-4.41828,0 -8,-3.58172 -8,-8c0,-4.41828 3.58172,-8 8,-8c4.41828,0 8,3.58172 8,8z" fill="#0033ff" stroke="none" stroke-width="NaN" stroke-linecap="butt"/><text transform="translate(-41.5,424) scale(0.5,0.5)" font-size="40" xml:space="preserve" fill="#0033ff" fill-rule="nonzero" stroke="none" stroke-width="1" stroke-linecap="butt" stroke-linejoin="miter" stroke-miterlimit="10" stroke-dasharray="" stroke-dashoffset="0" font-family="Sans Serif" font-weight="normal" text-anchor="start" style="mix-blend-mode: normal"><tspan x="0" dy="0">= Start</tspan></text><path d="M-47.5,418c0,4.41828 -3.58172,8 -8,8c-4.41828,0 -8,-3.58172 -8,-8c0,-4.41828 3.58172,-8 8,-8c4.41828,0 8,3.58172 8,8z" fill="#0033ff" stroke="none" stroke-width="NaN" stroke-linecap="butt"/></g></g></svg>