<svg version="1.1" xmlns="http://www.w3.org/2000/svg" xmlns:xlink="http://www.w3.org/1999/xlink" width="84.1963" height="90.01676" viewBox="0,0,84.1963,90.01676"><g transform="translate(-199.89062,-136.40876)"><g data-paper-data="{&quot;isPaintingLayer&quot;:true}" fill-rule="nonzero" stroke="#000000" stroke-linecap="butt" stroke-linejoin="miter" stroke-miterlimit="10" stroke-dasharray="" stroke-dashoffset="0" style="mix-blend-mode: normal"><path d="M267.48674,173.68983c0,15.15196 -12.75552,27.43505 -28.49025,27.43505c-15.73473,0 -28.49025,-12.28309 -28.49025,-27.43505c0,-15.15196 12.75552,-27.43505 28.49025,-27.43505c15.73473,0 28.49025,12.28309 28.49025,27.43505z" fill="#9a9a9a" stroke-width="6"/><path d="M225.82279,165.66673l-15.52585,-22.09448l24.48307,14.33155z" fill="#ff0000" stroke-width="4.5"/><path d="M248.21437,156.9367l26.12554,-6.83183l-21.9797,17.93619z" fill="#ff0000" stroke-width="4.5"/><path d="M245.76505,191.37275l-10.93555,24.69072l-0.33289,-28.36729z" fill="#ff0000" stroke-width="4.5"/><path d="M224.86534,179.1719l-19.20524,18.98359l10.06098,-26.52529z" fill="#ff0000" stroke-width="4.5"/><path d="M242.73763,172.63485l30.08066,4.41696l-28.71611,7.50493z" fill="#ff0000" stroke-width="4.5"/></g></g></svg>