<svg version="1.1" xmlns="http://www.w3.org/2000/svg" xmlns:xlink="http://www.w3.org/1999/xlink" width="257.49029" height="237.96273" viewBox="0,0,257.49029,237.96273"><g transform="translate(-111.25486,-61.01864)"><g data-paper-data="{&quot;isPaintingLayer&quot;:true}" fill-rule="nonzero" stroke-linecap="butt" stroke-linejoin="miter" stroke-miterlimit="10" stroke-dasharray="" stroke-dashoffset="0" style="mix-blend-mode: normal"><g><path d="M128.4135,281.82268c0,0 -11.15865,-9.25586 -11.15865,-36.77962c0,-45.02496 0,-109.07454 0,-133.90385c0,-19.70666 11.15865,-30.17226 11.15865,-30.17226c0,0 12.9321,-13.94832 32.97079,-13.94832c29.13831,0 103.5452,0 153.43146,0c23.39775,0 36.77075,16.738 36.77075,16.738c0,0 11.15865,16.04489 11.15865,35.7516c0,22.7464 0,75.70366 0,117.16585c0,31.46331 -8.36897,42.35896 -8.36897,42.35896c0,0 -11.83404,13.94832 -39.56042,13.94832c-47.54274,0 -117.20575,0 -145.06249,0c-23.00205,0 -41.33981,-11.15865 -41.33981,-11.15865z" fill="#66e5ff" stroke="#000000" stroke-width="12"/><path d="M179.34046,245.25186v-22.57887h122.3022v22.57887z" fill="#000000" stroke="none" stroke-width="0"/><path d="M203.80089,173.75211v-58.32871h16.93415v58.32871z" fill="#000000" stroke="none" stroke-width="0"/><path d="M250.84022,173.75211v-58.32877h16.93415v58.32877z" fill="#000000" stroke="none" stroke-width="0"/></g></g></g></svg>