<svg version="1.1" xmlns="http://www.w3.org/2000/svg" xmlns:xlink="http://www.w3.org/1999/xlink" width="348.49028" height="321.72411" viewBox="0,0,348.49028,321.72411"><g transform="translate(-65.75486,-19.13794)"><g data-paper-data="{&quot;isPaintingLayer&quot;:true}" fill-rule="nonzero" stroke-linecap="butt" stroke-linejoin="miter" stroke-miterlimit="10" stroke-dasharray="" stroke-dashoffset="0" style="mix-blend-mode: normal"><g><path d="M87.04987,319.56699c0,0 -15.29501,-12.68689 -15.29501,-50.41334c0,-61.71512 0,-149.50703 0,-183.54023c0,-27.01166 15.29501,-41.35671 15.29501,-41.35671c0,0 17.72586,-19.11878 45.19262,-19.11878c39.93949,0 141.92804,0 210.30647,0c32.07098,0 50.40118,22.94255 50.40118,22.94255c0,0 15.29501,21.99251 15.29501,49.00424c0,31.17819 0,103.766 0,160.59768c0,43.12634 -11.47123,58.06087 -11.47123,58.06087c0,0 -16.22076,19.11878 -54.22495,19.11878c-65.1662,0 -160.65238,0 -198.83523,0c-31.5286,0 -56.66393,-15.29501 -56.66393,-15.29501z" fill="#66e5ff" stroke="#000000" stroke-width="12"/><path d="M156.85478,269.43985v-30.94855h167.63801v30.94855z" fill="#000000" stroke="none" stroke-width="0"/><path d="M190.38235,171.43609v-79.95039h23.21141v79.95039z" fill="#000000" stroke="none" stroke-width="0"/><path d="M254.85855,171.43609v-79.95047h23.21141v79.95047z" fill="#000000" stroke="none" stroke-width="0"/></g></g></g></svg>