<svg version="1.1" xmlns="http://www.w3.org/2000/svg" xmlns:xlink="http://www.w3.org/1999/xlink" width="76.15713" height="92.04743" viewBox="0,0,76.15713,92.04743"><g transform="translate(-199.78981,-144.14995)"><g data-paper-data="{&quot;isPaintingLayer&quot;:true}" fill-rule="nonzero" stroke-linejoin="miter" stroke-miterlimit="10" stroke-dasharray="" stroke-dashoffset="0" style="mix-blend-mode: normal"><path d="M230.61535,214.70417l0.0081,-33.03302l19.51952,0.00479l-0.0081,33.03303z" data-paper-data="{&quot;index&quot;:null}" fill="#ffffff" stroke="#000c0c" stroke-width="0" stroke-linecap="butt"/><path d="M218.60154,228.08988l0.00337,-13.76377l42.79354,0.01049l-0.00337,13.76376z" data-paper-data="{&quot;index&quot;:null}" fill="#ffffff" stroke="#000c0c" stroke-width="5" stroke-linecap="butt"/><path d="M232.75719,191.91768c0,0 7.42964,-0.06856 14.75,0.00362" data-paper-data="{&quot;index&quot;:null}" fill="none" stroke="#0021ff" stroke-width="5" stroke-linecap="round"/><path d="M232.75542,199.16767c0,0 7.42963,-0.06856 14.74999,0.00362" data-paper-data="{&quot;index&quot;:null}" fill="none" stroke="#0021ff" stroke-width="5" stroke-linecap="round"/><path d="M232.50358,206.66761c0,0 7.42963,-0.06856 14.74999,0.00362" data-paper-data="{&quot;index&quot;:null}" fill="none" stroke="#0021ff" stroke-width="5" stroke-linecap="round"/><path d="M229.25174,214.16681l0.00729,-29.75l21.75,0.00533l-0.00729,29.75z" data-paper-data="{&quot;index&quot;:null}" fill="none" stroke="#000000" stroke-width="5" stroke-linecap="butt"/><path d="M232.75903,184.41766l0.00846,-34.5l14.99999,0.00369l-0.00846,34.5z" data-paper-data="{&quot;index&quot;:null}" fill="#ffffff" stroke="#000000" stroke-width="5" stroke-linecap="butt"/><path d="M257.25003,221.17367c-0.00033,1.38071 -1.1199,2.49972 -2.50061,2.49938c-1.38072,-0.00033 -2.49973,-1.1199 -2.49939,-2.50061c0.00033,-1.38071 1.1199,-2.49972 2.50061,-2.49938c1.38071,0.00033 2.49972,1.1199 2.49938,2.50061z" data-paper-data="{&quot;index&quot;:null}" fill="#000000" stroke="none" stroke-width="0.5" stroke-linecap="butt"/><path d="M225.4994,223.66589c-1.38071,-0.00033 -2.49972,-1.1199 -2.49938,-2.50061c0.00033,-1.38071 1.1199,-2.49972 2.50061,-2.49938c1.38071,0.00033 2.49972,1.1199 2.49938,2.50061c-0.00033,1.38071 -1.1199,2.49972 -2.50061,2.49938z" data-paper-data="{&quot;index&quot;:null}" fill="#000000" stroke="none" stroke-width="0.5" stroke-linecap="butt"/><path d="M199.78981,236.19738v-92.04743h76.15713v92.04743z" fill="none" stroke="none" stroke-width="0" stroke-linecap="butt"/></g></g></svg>